<svg width="381" height="513" viewBox="0 0 381 513" fill="none" xmlns="http://www.w3.org/2000/svg">
<path fill-rule="evenodd" clip-rule="evenodd" d="M25.745 29H354.477C368.696 29 380.222 40.526 380.222 54.745V486.589C380.222 500.807 368.696 512.334 354.477 512.334H25.745C11.527 512.334 0 500.808 0 486.589V54.745C0 40.527 11.526 29 25.745 29ZM307.84 245.961C307.84 310.981 255.131 363.69 190.111 363.69C125.091 363.69 72.3821 310.981 72.3821 245.961C72.3821 180.941 125.091 128.232 190.111 128.232C255.131 128.232 307.84 180.941 307.84 245.961ZM307.839 410.948H72.383C68.116 410.948 64.657 407.489 64.657 403.222C64.657 398.955 68.116 395.496 72.383 395.496H307.84C312.107 395.496 315.566 398.955 315.566 403.222C315.566 407.489 312.106 410.948 307.839 410.948ZM72.383 446.315H307.839C312.106 446.315 315.566 442.856 315.566 438.589C315.566 434.322 312.107 430.863 307.84 430.863H72.383C68.116 430.863 64.657 434.322 64.657 438.589C64.657 442.856 68.116 446.315 72.383 446.315Z" fill="#324D51"/>
<path d="M256.92 57.331H123.302C114.849 57.331 107.996 50.478 107.996 42.025V15.306C107.996 6.853 114.849 0 123.302 0H256.919C265.372 0 272.225 6.853 272.225 15.306V42.025C272.226 50.478 265.373 57.331 256.92 57.331V57.331Z" fill="#324D51"/>
<path d="M256.92 0H217.975V57.331H256.92C265.373 57.331 272.226 50.478 272.226 42.025V15.306C272.226 6.853 265.373 0 256.92 0V0Z" fill="#324D51"/>
<path d="M190.111 128.232V245.961H307.84C307.84 180.941 255.131 128.232 190.111 128.232V128.232Z" fill="#DAEEFB"/>
<path d="M273.862 328.7C294.87 307.437 307.839 278.213 307.839 245.961H190.111L273.862 328.7Z" fill="#94C5E4"/>
</svg>
