<svg width="125" height="125" viewBox="0 0 125 125" fill="none" xmlns="http://www.w3.org/2000/svg">
<path d="M75.7749 3.67725H49.2251C42.3257 3.67725 36.7126 9.29028 36.7126 16.1897V18.4172H44.0369V16.1897C44.0369 13.3289 46.3643 11.0015 49.2251 11.0015H75.7749C78.6357 11.0015 80.9631 13.3289 80.9631 16.1897V18.4172H88.2874V16.1897C88.2874 9.29053 82.6743 3.67725 75.7749 3.67725V3.67725Z" fill="#324D51"/>
<path d="M66.1926 66.1772V55.1299H58.8074V66.1772C58.8074 68.1997 57.1677 69.8394 55.1453 69.8394H44.0979V77.2246H55.1453C57.1677 77.2246 58.8074 78.8643 58.8074 80.8867V91.9341H66.1926V80.8867C66.1926 78.8643 67.8323 77.2246 69.8547 77.2246H80.9021V69.8394H69.8547C67.8323 69.8394 66.1926 68.2 66.1926 66.1772Z" fill="#324D51"/>
<path d="M0 44.3572V102.707C0 111.719 6.43677 119.253 14.9534 120.959V26.1052C6.43677 27.8113 0 35.3457 0 44.3572Z" fill="#324D51"/>
<path d="M110.047 26.1052V120.959C118.563 119.253 125 111.719 125 102.707V44.3572C125 35.3457 118.563 27.8113 110.047 26.1052V26.1052Z" fill="#324D51"/>
<path d="M102.722 25.7417H22.2776V121.323H102.722V25.7417ZM88.2263 80.8867C88.2263 82.9092 86.5866 84.5488 84.5642 84.5488H73.5168V95.5962C73.5168 97.6187 71.8772 99.2583 69.8547 99.2583H55.1452C53.1228 99.2583 51.4831 97.6187 51.4831 95.5962V84.5488H40.4358C38.4133 84.5488 36.7737 82.9092 36.7737 80.8867V66.1773C36.7737 64.1548 38.4133 62.5151 40.4358 62.5151H51.4831V51.4678C51.4831 49.4453 53.1228 47.8057 55.1452 47.8057H69.8547C71.8772 47.8057 73.5168 49.4453 73.5168 51.4678V62.5151H84.5642C86.5866 62.5151 88.2263 64.1548 88.2263 66.1773V80.8867Z" fill="#324D51"/>
</svg>
