<svg width="447" height="464" viewBox="0 0 447 464" fill="none" xmlns="http://www.w3.org/2000/svg">
<path d="M434.1 197.2C423.6 181.5 407.4 170.5 389.2 165.7C379.7 163.2 370 163.4 360.4 163.4H288C280.8 163.4 276.4 168.9 275.7 175.5C273.2 199.3 273.8 225.1 262.5 246.7C247.9 274.6 218 292.2 186.7 292.2H85C76.5 292.2 68.5 292.1 60.2 289.6C44.5 284.9 32.1 271.7 27 256.4C15.8 223.2 41.7 187.9 76.5 187.9H83H159.2C167.5 187.9 175.9 187.9 184.2 187.9C209.7 187.9 234.1 181.3 254.7 165.8C282.4 144.9 298.2 112.6 298.7 78C298.7 77.9 298.7 77.8 298.7 77.7C298.7 77.6 298.7 77.5 298.7 77.4C298 35.2 264.4 1.39996 222.2 0.699955C180 -4.46411e-05 146.2 36.1 145.5 77.2C145.2 93 169.7 93.1 170 77.4C170.5 48.6 193.2 25.7 222.1 25.2C250.9 24.7 273.9 49.1 274.3 77.3C274.3 77.4 274.3 77.5 274.3 77.6C274.3 77.7 274.3 77.8 274.3 77.9C273.8 107.9 258.9 135 233.4 151C216.7 161.4 198.5 163.6 179.4 163.6C172.8 163.6 166.2 163.6 159.6 163.6C159.5 163.6 159.5 163.6 159.4 163.6H76.8C58.9 163.6 41.6 169.9 27.8 181.2C-2.30002 206 -8.60001 250.7 13 283.1C23.5 298.8 39.7 309.8 57.9 314.6C65.3 316.6 73 316.8 80.6 316.9C80.8 316.9 81.1 316.9 81.3 316.9H82.8C103.7 316.9 124.6 317.3 145.6 317.4C146 334.6 146.3 351.7 146.7 368.9C146.9 376.5 146.8 384.2 147.2 391.8C148.2 411 156.8 428.9 170.3 442.3C198.7 470.7 244 469.7 274 445C288.5 433.1 297.4 414.7 299.6 396.3C300.6 388.2 300.2 379.8 300.2 371.7C300.2 353.4 300.2 335.1 300.2 316.8H370.4C388.3 316.8 405.6 310.5 419.4 299.2C449.5 274.3 455.8 229.5 434.1 197.2ZM389 288.9C380 292.3 370.9 292.2 361.4 292.2H288C279.7 292.2 275.7 299 276.1 305.4C275.8 306.4 275.7 307.5 275.7 308.8C275.7 328.8 275.7 348.7 275.7 368.7C275.7 376.3 275.9 384 275.5 391.6C274.6 408.2 264.2 423.3 250.4 431.9C219.4 451.2 180 431.4 172.3 397.3C170.6 389.6 171.2 380.8 171.1 372.9C170.8 360.2 170.6 347.5 170.3 334.7C170.2 328.8 170.1 323 169.9 317.1C175.8 317 181.7 316.9 187.6 316.7C188.9 316.7 190.1 316.6 191.4 316.6C197.4 316.4 203.4 315.7 209.2 314.4C240.5 307.8 268 287.2 283.6 259C295.6 237.3 297 212.3 299 187.9H370.3C386.4 187.9 400.5 195.1 411 207.1C434.4 233.6 420.9 276.9 389 288.9Z" fill="#13C9DF"/>
</svg>
