<svg width="365" height="365" viewBox="0 0 365 365" fill="none" xmlns="http://www.w3.org/2000/svg">
<path d="M234.5 15V83.8C234.5 83.9 234.5 84.1 234.5 84.2C234.6 87 237 89.1 239.8 89H308.9L234.5 15Z" fill="white"/>
<path d="M239.8 109C239.7 109 239.5 109 239.4 109C225.6 108.9 214.4 97.6 214.5 83.7V0H62.6001C62.5001 0 62.5001 0 62.4001 0C50.8001 0.1 41.4001 9.6 41.5001 21.2V344.4C41.5001 356.1 50.9001 365 62.6001 365H302.4C314.1 365 323.5 356.1 323.5 344.4V109H239.8ZM182.5 216.2C199.1 216.2 213.7 227.3 218.2 243.3C223.7 263 212.2 283.5 192.5 289V297.5C192.5 303 188 307.5 182.5 307.5C177 307.5 172.5 303 172.5 297.5V289C156.5 284.5 145.4 269.9 145.4 253.3C145.4 247.8 149.9 243.3 155.4 243.3C160.9 243.3 165.4 247.8 165.4 253.3C165.4 262.8 173.1 270.4 182.5 270.4C192 270.4 199.6 262.7 199.6 253.3C199.6 243.8 191.9 236.2 182.5 236.2C165.9 236.2 151.3 225.1 146.8 209.1C141.3 189.4 152.8 169 172.5 163.5V156.7C172.5 151.2 177 146.7 182.5 146.7C188 146.7 192.5 151.2 192.5 156.7V163.5C208.5 168 219.5 182.5 219.6 199.1C219.6 204.6 215.1 209.1 209.6 209.1C204.1 209.1 199.6 204.6 199.6 199.1C199.5 189.7 191.9 182.1 182.5 182.1C182.4 182.1 182.3 182.1 182.2 182.1C172.8 182.2 165.2 189.9 165.3 199.3C165.4 208.7 173.1 216.3 182.5 216.2Z" fill="white"/>
</svg>
