<svg width="78" height="125" viewBox="0 0 78 125" fill="none" xmlns="http://www.w3.org/2000/svg">
<path fill-rule="evenodd" clip-rule="evenodd" d="M64.6552 0H12.931C5.78942 0 0 5.78942 0 12.931V112.069C0 119.211 5.78942 125 12.931 125H64.6552C71.7968 125 77.5862 119.211 77.5862 112.069V12.931C77.5862 5.78942 71.7968 0 64.6552 0ZM41.4871 107.759C42.6292 107.762 43.7236 108.217 44.5312 109.025C45.3388 109.832 45.794 110.927 45.7974 112.069C45.7889 113.21 45.3321 114.301 44.5256 115.107C43.7191 115.914 42.6276 116.371 41.4871 116.379H32.8664C31.7242 116.376 30.6299 115.921 29.8223 115.113C29.0147 114.305 28.5594 113.211 28.556 112.069C28.5645 110.928 29.0213 109.837 29.8279 109.03C30.6344 108.224 31.7258 107.767 32.8664 107.759H41.4871ZM56.5733 46.875H47.9526V64.1164H56.5733V46.875ZM65.194 46.875H69.5043V64.1164H65.194V46.875ZM22.0905 6.46552H17.7802V10.7759H22.0905V6.46552ZM9.15942 6.46552H13.4698V10.7759H9.15942V6.46552ZM47.9526 6.46552H26.4009V10.7759H47.9526V6.46552ZM47.9527 79.7414H69.5044V84.0517H47.9527V79.7414ZM69.5044 88.3621H47.9527V92.6724H69.5044V88.3621ZM65.1941 6.46552H69.5044V10.7759H65.1941V6.46552ZM69.5044 32.3276H47.9527V36.6379H69.5044V32.3276ZM22.2925 45.5729H17.0393C16.3427 45.5729 15.6746 45.2938 15.182 44.797C14.6894 44.3002 14.4127 43.6264 14.4127 42.9238C14.4127 42.2213 14.6894 41.5475 15.182 41.0507C15.6746 40.5539 16.3427 40.2748 17.0393 40.2748H22.2925C22.9891 40.2748 23.6572 40.5539 24.1498 41.0507C24.6424 41.5475 24.9191 42.2213 24.9191 42.9238H30.1724C30.1724 40.8161 29.3422 38.7947 27.8644 37.3043C26.3866 35.8139 24.3824 34.9766 22.2925 34.9766V32.3276H17.0393V34.9766C14.9494 34.9766 12.9451 35.8139 11.4674 37.3043C9.98962 38.7947 9.15942 40.8161 9.15942 42.9238C9.15942 45.0316 9.98962 47.053 11.4674 48.5434C12.9451 50.0337 14.9494 50.871 17.0393 50.871H22.2925C22.9891 50.871 23.6572 51.1501 24.1498 51.6469C24.6424 52.1437 24.9191 52.8175 24.9191 53.5201C24.9191 54.2227 24.6424 54.8965 24.1498 55.3933C23.6572 55.8901 22.9891 56.1692 22.2925 56.1692H17.0393C16.3427 56.1692 15.6746 55.8901 15.182 55.3933C14.6894 54.8965 14.4127 54.2227 14.4127 53.5201H9.15942C9.15942 55.6278 9.98962 57.6492 11.4674 59.1396C12.9451 60.63 14.9494 61.4673 17.0393 61.4673V64.1164H22.2925V61.4673C24.3824 61.4673 26.3866 60.63 27.8644 59.1396C29.3422 57.6492 30.1724 55.6278 30.1724 53.5201C30.1724 51.4124 29.3422 49.391 27.8644 47.9006C26.3866 46.4102 24.3824 45.5729 22.2925 45.5729ZM35.0215 75.431H9.15942V79.7414H35.0215V75.431ZM9.15942 84.0518H35.0215V88.3621H9.15942V84.0518ZM35.0215 92.6724H9.15942V96.9828H35.0215V92.6724Z" fill="#324D51"/>
</svg>
