<svg width="105" height="89" viewBox="0 0 105 89" fill="none" xmlns="http://www.w3.org/2000/svg">
<path d="M89.8427 47.9741H81.7224C82.5501 50.2349 83.0023 52.6747 83.0023 55.2177V85.8357C83.0023 86.8959 82.8173 87.9136 82.4808 88.8601H95.9054C100.92 88.8601 105 84.7898 105 79.787V63.0957C105 54.7577 98.2004 47.9741 89.8427 47.9741Z" fill="#324D51"/>
<path d="M21.9977 55.2178C21.9977 52.6747 22.4499 50.2351 23.2776 47.9743H15.1573C6.79957 47.9743 0 54.7579 0 63.0961V79.7873C0 84.7902 4.07962 88.8604 9.09439 88.8604H22.5192C22.1827 87.9136 21.9977 86.8961 21.9977 85.8359V55.2178Z" fill="#324D51"/>
<path d="M61.782 40.096H43.218C34.8602 40.096 28.0606 46.8797 28.0606 55.2179V85.8359C28.0606 87.506 29.4178 88.8603 31.0921 88.8603H73.9079C75.5822 88.8603 76.9394 87.5062 76.9394 85.8359V55.2179C76.9394 46.8797 70.1398 40.096 61.782 40.096Z" fill="#324D51"/>
<path d="M52.5 0C42.4487 0 34.2714 8.15813 34.2714 18.1861C34.2714 24.9879 38.0344 30.9284 43.5916 34.0473C46.2275 35.5266 49.2663 36.3719 52.5 36.3719C55.7337 36.3719 58.7725 35.5266 61.4084 34.0473C66.9658 30.9284 70.7286 24.9877 70.7286 18.1861C70.7286 8.15833 62.5513 0 52.5 0Z" fill="#324D51"/>
<path d="M20.491 16.9507C12.9739 16.9507 6.85845 23.0518 6.85845 30.5513C6.85845 38.0509 12.9739 44.152 20.491 44.152C22.3978 44.152 24.2136 43.7579 25.863 43.0496C28.7148 41.8247 31.0663 39.6564 32.5213 36.9403C33.5426 35.0341 34.1236 32.8594 34.1236 30.5513C34.1236 23.052 28.0081 16.9507 20.491 16.9507Z" fill="#324D51"/>
<path d="M84.509 16.9507C76.9919 16.9507 70.8764 23.0518 70.8764 30.5513C70.8764 32.8596 71.4574 35.0343 72.4787 36.9403C73.9337 39.6566 76.2852 41.8249 79.137 43.0496C80.7864 43.7579 82.6022 44.152 84.509 44.152C92.0261 44.152 98.1416 38.0509 98.1416 30.5513C98.1416 23.0518 92.0261 16.9507 84.509 16.9507Z" fill="#324D51"/>
</svg>
