<svg width="125" height="125" viewBox="0 0 125 125" fill="none" xmlns="http://www.w3.org/2000/svg">
<g clip-path="url(#clip0)">
<path d="M69.4568 23.6645H55.5432V112.759H69.4568V23.6645Z" fill="#324D51"/>
<path d="M113.96 106.354H11.0398C4.94262 106.354 0 111.297 0 117.394C0 119.117 1.39673 120.514 3.11938 120.514H121.88C123.603 120.514 124.999 119.117 124.999 117.394C125 111.297 120.057 106.354 113.96 106.354Z" fill="#324D51"/>
<path fill-rule="evenodd" clip-rule="evenodd" d="M13.8077 4.48633H38.3394C41.6978 4.48633 42.9359 8.96142 40.0196 10.6272C39.9857 10.6467 39.952 10.6655 39.9185 10.6841C38.8675 11.2659 38.2154 12.3706 38.2154 13.5718V84.8802C38.2154 91.586 32.7794 97.0223 26.0733 97.0223C19.3673 97.0223 13.9313 91.5863 13.9313 84.8802V13.5722C13.9313 12.3706 13.2792 11.2661 12.2279 10.6846C12.1945 10.6662 12.1608 10.6472 12.1271 10.6279C9.21107 8.96142 10.4493 4.48633 13.8077 4.48633ZM20.3223 84.8799V48.8795H31.8252V84.8799C31.8252 88.0511 29.2451 90.6314 26.0737 90.6314C22.9023 90.6314 20.3223 88.0513 20.3223 84.8799Z" fill="#324D51"/>
<path fill-rule="evenodd" clip-rule="evenodd" d="M111.192 4.48633H86.6603C83.3019 4.48633 82.0639 8.96142 84.9801 10.6272C85.0141 10.6467 85.0478 10.6655 85.0812 10.6841C86.1322 11.2659 86.7843 12.3706 86.7843 13.5718V84.8802C86.7843 91.586 92.2204 97.0223 98.9264 97.0223C105.632 97.0223 111.068 91.5863 111.068 84.8802V13.5722C111.068 12.3706 111.721 11.2661 112.772 10.6846C112.785 10.6772 112.799 10.6698 112.812 10.6623C112.832 10.651 112.852 10.6395 112.873 10.6279C115.789 8.96142 114.55 4.48633 111.192 4.48633ZM104.678 84.8802V38.6547H93.1748V84.8802C93.1748 88.0514 95.7546 90.6317 98.9263 90.6317C102.098 90.6317 104.678 88.0516 104.678 84.8802Z" fill="#324D51"/>
<path d="M84.864 23.1304C84.9028 23.1545 84.9392 23.1799 84.9797 23.2031C85.0137 23.2224 85.0474 23.2415 85.0808 23.26C86.1318 23.8416 86.7839 24.946 86.7839 26.1472V35.9201H111.068V26.1472C111.068 24.9458 111.72 23.8413 112.772 23.2595C112.805 23.2412 112.839 23.2224 112.872 23.2029C112.913 23.1797 112.949 23.1543 112.988 23.1301C112.988 23.1304 84.864 23.1304 84.864 23.1304Z" fill="#324D51"/>
<path d="M12.011 23.1311C12.0498 23.1553 12.0864 23.1809 12.1267 23.2039C12.1604 23.2231 12.1941 23.2422 12.2275 23.2605C13.2788 23.8423 13.9309 24.9465 13.9309 26.1482V35.9211H38.2153V26.1482C38.2153 24.947 38.8674 23.8423 39.9184 23.261C39.9518 23.2427 39.9855 23.2236 40.0195 23.2041C40.0598 23.1809 40.0964 23.1555 40.1352 23.1313L12.011 23.1311Z" fill="#324D51"/>
<path d="M121.895 18.1003H3.10449C1.38989 18.1003 0 19.49 0 21.2046V25.2707C0 26.9853 1.38989 28.3752 3.10449 28.3752H121.896C123.61 28.3752 125 26.9853 125 25.2707V21.2046C125 19.49 123.61 18.1003 121.895 18.1003Z" fill="#324D51"/>
</g>
<defs>
<clipPath id="clip0">
<rect width="125" height="125" fill="white"/>
</clipPath>
</defs>
</svg>
