<svg width="938" height="259" viewBox="0 0 938 259" fill="none" xmlns="http://www.w3.org/2000/svg">
<path d="M242.2 109.6C236.3 100.9 227.3 94.7001 217.2 92.0001C211.9 90.6001 206.5 90.7001 201.1 90.7001H160.7C156.7 90.7001 154.2 93.8001 153.8 97.5001C152.4 110.8 152.7 125.1 146.4 137.2C138.3 152.8 121.6 162.5 104.1 162.5H47.4C42.7 162.5 38.2001 162.5 33.6001 161.1C24.9001 158.5 17.9001 151.1 15.1001 142.6C8.90005 124.1 23.3001 104.4 42.7001 104.4H46.3001H88.8001C93.4001 104.4 98.1001 104.4 102.7 104.4C116.9 104.4 130.5 100.7 142 92.1001C157.4 80.4001 166.2 62.4001 166.5 43.2001C166.5 43.1001 166.5 43.1001 166.5 43.0001C166.5 42.9001 166.5 42.9001 166.5 42.8001C166.1 19.3001 147.4 0.500108 123.8 0.100108C100.3 -0.299892 81.5001 19.8001 81.1001 42.7001C81.0001 51.5001 94.6001 51.6001 94.7001 42.8001C95.0001 26.7001 107.6 14.0001 123.7 13.7001C139.8 13.4001 152.5 27.0001 152.8 42.7001C152.8 42.8001 152.8 42.8001 152.8 42.9001C152.8 43.0001 152.8 43.0001 152.8 43.1001C152.5 59.8001 144.2 74.9001 130 83.8001C120.7 89.6001 110.6 90.8001 99.9 90.8001C96.2 90.8001 92.6 90.8001 88.9 90.8001H88.8001H42.8001C32.8001 90.8001 23.2001 94.3001 15.5001 100.6C-1.29994 114.4 -4.79994 139.4 7.30006 157.4C13.2001 166.1 22.2001 172.3 32.3001 175C36.5001 176.1 40.7 176.3 44.9 176.3C45 176.3 45.2001 176.3 45.3001 176.3H46.1001C57.7001 176.3 69.4001 176.5 81.1001 176.6C81.3001 186.2 81.5001 195.7 81.7001 205.3C81.8001 209.6 81.8001 213.8 82.0001 218.1C82.6001 228.8 87.4 238.8 94.9 246.3C110.7 262.1 136 261.6 152.7 247.8C160.8 241.2 165.8 230.9 167 220.7C167.5 216.2 167.3 211.5 167.3 207C167.3 196.8 167.3 186.6 167.3 176.4H206.5C216.5 176.4 226.1 172.9 233.8 166.6C250.7 152.6 254.2 127.7 242.2 109.6ZM217.1 160.8C212.1 162.7 207 162.6 201.7 162.6H160.7C156.1 162.6 153.9 166.4 154.1 169.9C153.9 170.5 153.9 171.1 153.9 171.8C153.9 182.9 153.9 194.1 153.9 205.2C153.9 209.5 154 213.7 153.8 218C153.3 227.3 147.5 235.6 139.8 240.4C122.5 251.2 100.6 240.1 96.3001 221.1C95.3001 216.8 95.7001 211.9 95.6001 207.5C95.5001 200.4 95.3001 193.3 95.2001 186.2C95.1001 182.9 95.1001 179.7 95.0001 176.4C98.3001 176.4 101.6 176.3 104.9 176.2C105.6 176.2 106.3 176.2 107 176.1C110.4 176 113.7 175.6 116.9 174.9C134.4 171.2 149.7 159.8 158.4 144C165.1 131.9 165.8 118 167 104.4H206.8C215.8 104.4 223.6 108.4 229.5 115.1C242.3 129.9 234.8 154.1 217.1 160.8Z" fill="#13C9DF"/>
<path d="M87.3 81.9C94 81.9 99.6 76.4 99.6 69.8C99.6 63.2 94.1 57.5 87.5 57.5C80.8 57.5 75.2 63 75.2 69.6C75.2 76.2 80.7 81.9 87.3 81.9Z" fill="#1E6DF0"/>
<path d="M94.9 176.5L81.5 187.1L81.3 176.5H94.9Z" fill="#1BA8B2"/>
<path d="M346.7 130.7H329.8L324.3 114.9H295.7L290.2 130.7H274.1L301.6 57.9001H319.3L346.7 130.7ZM320.4 103.6L310.1 74.2001L299.8 103.6H320.4Z" fill="#2C4964"/>
<path d="M404.6 74.8003L373.9 150.8H358.3L366.8 130.8L344.9 74.8003H361L375.1 114.7L389.3 74.8003H404.6Z" fill="#2C4964"/>
<path d="M464.5 130.7H449.7V122.9C445.2 126.6 441.5 129 438.7 130.3C435.9 131.6 432.9 132.2 429.9 132.2C418.1 132.2 412.2 125.3 412.2 111.5V74.8003H427.1V102.7C427.1 110.5 428 115.3 429.7 117.2C431.4 119.1 434.2 120 438.1 120C441.4 120 445.3 118.6 449.8 115.7V74.8003H464.6V130.7H464.5Z" fill="#2C4964"/>
<path d="M494.7 126.8L493.7 130.8H479.8V54.8003H494.6V82.4003C498.9 78.8003 502.4 76.3003 505.1 75.2003C507.8 74.0003 510.7 73.4003 513.7 73.4003C520.3 73.4003 525.3 75.9003 528.9 81.0003C532.5 86.1003 534.3 93.2003 534.3 102.3C534.3 111.2 532 118.5 527.4 124.1C522.8 129.7 517.1 132.5 510.3 132.5C505.6 132.3 500.3 130.4 494.7 126.8ZM494.7 88.7003V119.7C498 120.9 501 121.5 503.7 121.5C514 121.5 519.1 115.2 519.1 102.5C519.1 90.6003 514.8 84.7003 506.2 84.7003C502.7 84.7003 498.9 86.0003 494.7 88.7003Z" fill="#2C4964"/>
<path d="M570.1 132.5C561 132.5 554 129.9 549 124.7C544 119.5 541.5 112.2 541.5 102.9C541.5 93.6001 544 86.3001 549.1 81.0001C554.2 75.8001 561.2 73.1001 570.2 73.1001C579.2 73.1001 586.3 75.7001 591.3 81.0001C596.3 86.2001 598.9 93.5001 598.9 102.9C598.9 112.2 596.4 119.5 591.3 124.7C586.2 129.9 579.1 132.5 570.1 132.5ZM570.1 83.4001C561.3 83.4001 556.9 89.9001 556.9 103C556.9 115.8 561.4 122.2 570.3 122.2C579 122.2 583.3 115.8 583.3 103C583.3 89.9001 578.9 83.4001 570.1 83.4001Z" fill="#2C4964"/>
<path d="M673.3 130.7H657.4V97.6003H626.8V130.7H610.9V58.0002H626.8V85.7002H657.4V58.0002H673.3V130.7Z" fill="#2C4964"/>
<path d="M739.9 105.1H700.3C700.9 116.3 707.3 121.9 719.4 121.9C725.7 121.9 732.1 119.6 738.4 115H738.9V127.8C731.3 130.7 724.2 132.1 717.6 132.1C707.1 132.1 699.1 129.6 693.6 124.6C688.1 119.6 685.3 112.4 685.3 103C685.3 93.7002 687.9 86.3002 693.1 81.0002C698.3 75.7002 705.5 73.0002 714.7 73.0002C731.5 73.0002 739.9 81.9002 739.9 99.8002V105.1V105.1ZM725.1 96.7002C725 87.1002 721.1 82.3002 713.4 82.3002C705.2 82.3002 700.9 87.1002 700.3 96.7002H725.1Z" fill="#2C4964"/>
<path d="M798.3 130.7H783.6V123.4C779.1 127.3 775.4 129.7 772.6 130.7C769.8 131.7 766.8 132.2 763.6 132.2C758.7 132.2 754.7 130.6 751.4 127.4C748.2 124.2 746.6 120.2 746.6 115.2C746.6 108.9 749 104.1 753.7 100.9C758.4 97.6002 768.5 95.6002 783.8 94.8002V93.3002C783.8 89.8002 782.6 87.2002 780.2 85.7002C777.8 84.1002 773.8 83.3002 768.2 83.3002C764.4 83.3002 759 84.7002 751.9 87.6002H751.4V75.9002C758.9 74.1002 765.6 73.2002 771.7 73.2002C781.1 73.2002 787.9 74.7002 792.1 77.8002C796.3 80.8002 798.4 85.7002 798.4 92.3002V130.7H798.3ZM783.6 117.1V103C773.9 103.8 767.8 105.1 765.3 106.7C762.9 108.4 761.6 110.7 761.6 113.7C761.6 116.9 762.5 119.1 764.2 120.4C765.9 121.7 768.6 122.3 772.2 122.3C776.1 122.3 779.9 120.6 783.6 117.1Z" fill="#2C4964"/>
<path d="M828 130.7H813.2V54.7002H828V130.7Z" fill="#2C4964"/>
<path d="M876.3 130.4C872.3 131.4 868.1 131.8 863.6 131.8C856.9 131.8 852.1 130.4 849 127.5C845.9 124.7 844.4 120 844.4 113.7V84.6001H837V74.8001H844.4V59.1001H859.2V74.8001H876.3V84.6001H859.2V107.6C859.2 113.5 860 117.4 861.5 119.2C863 121 865.6 121.9 869.1 121.9C871.4 121.9 873.7 121.3 875.9 120.2H876.3V130.4V130.4Z" fill="#2C4964"/>
<path d="M937.8 130.7H922.9V102.8C922.9 95.0002 922 90.2002 920.3 88.3002C918.6 86.4002 915.8 85.5002 911.9 85.5002C908.7 85.5002 904.8 86.9002 900.3 89.8002V130.7H885.5V54.7002H900.3V82.6002C904.9 78.8002 908.6 76.3002 911.4 75.1002C914.2 73.9002 917.1 73.3002 920.1 73.3002C931.9 73.3002 937.8 80.2002 937.8 94.0002V130.7Z" fill="#2C4964"/>
<path d="M273 155H278.9V173.5H299.9V155H305.8V198.8H299.9V178.3H278.9V198.8H273V155Z" fill="#2C4964"/>
<path d="M330.7 173.5C333.3 170.9 336.4 169.7 340.2 169.7C344 169.7 347.1 171 349.7 173.5C352.6 176.4 354.1 180.1 354.1 184.5C354.1 188.9 352.6 192.6 349.7 195.5C347.1 198.1 344 199.3 340.2 199.3C336.4 199.3 333.3 198 330.7 195.5C327.8 192.6 326.3 188.9 326.3 184.5C326.4 180 327.8 176.4 330.7 173.5ZM335.1 176.3C333 178.4 332 181.1 332 184.5C332 187.9 332.9 190.6 334.8 192.4C336.3 193.9 338.1 194.7 340.2 194.7C342.3 194.7 344 193.9 345.6 192.4C347.5 190.5 348.4 187.9 348.4 184.5C348.4 181.1 347.4 178.3 345.3 176.3C343.9 174.9 342.2 174.2 340.2 174.2C338.2 174.2 336.5 174.9 335.1 176.3Z" fill="#2C4964"/>
<path d="M376.2 172.7C378.3 170.6 381.2 169.6 384.9 169.6C389 169.6 392 170.5 393.9 172.4C395.6 174.1 396.5 176 396.5 178H391.4C391.2 176.8 390.9 175.9 390.4 175.4C389.4 174.4 387.5 173.9 384.8 173.9C383.1 173.9 381.7 174.4 380.7 175.4C379.8 176.3 379.4 177.2 379.4 178.2C379.4 178.9 379.7 179.5 380.2 180C380.9 180.7 383 181.5 386.6 182.3C388.8 182.8 390.7 183.3 392.2 183.8C393.6 184.3 394.6 184.9 395.3 185.6C396.7 187 397.4 188.6 397.4 190.5C397.4 192.6 396.5 194.4 394.8 196.1C392.7 198.2 389.6 199.2 385.3 199.2C381 199.2 377.9 198.2 375.8 196.1C374.1 194.4 373.2 192.3 373.2 189.7H378.3C378.5 191.2 378.9 192.4 379.6 193C380.8 194.2 382.6 194.8 385 194.8C387.9 194.8 389.9 194.3 390.9 193.3C391.6 192.6 391.9 191.8 391.9 190.7C391.9 190 391.5 189.2 390.6 188.4C389.9 187.7 388.8 187.2 387.3 186.9C384.2 186.2 381.9 185.6 380.4 185.1C378.5 184.6 377.2 183.9 376.3 183C374.8 181.5 374 179.8 374 178.1C373.8 176.1 374.6 174.2 376.2 172.7Z" fill="#2C4964"/>
<path d="M421.8 208.3H416.7V170.1H421.8V173.4C423.9 170.8 426.5 169.6 429.7 169.6C433.3 169.6 436.2 170.7 438.4 172.9C441.1 175.6 442.5 179.5 442.5 184.4C442.5 189.5 441.1 193.5 438.4 196.2C436.2 198.4 433.3 199.5 429.7 199.5C426.1 199.5 423.5 198.1 421.8 195.4V208.3ZM424.4 176.5C422.7 178.2 421.8 180.3 421.8 182.7V186.3C421.8 188.7 422.7 190.8 424.6 192.7C426.1 194.2 427.8 195 429.7 195C431.4 195 432.9 194.4 434.1 193.2C436 191.3 436.9 188.4 436.9 184.5C436.9 180.7 436 178 434.3 176.3C432.9 174.9 431.4 174.2 429.7 174.2C427.7 174.2 425.9 175 424.4 176.5Z" fill="#2C4964"/>
<path d="M463.4 155.2H468.5V161.9H463.4V155.2ZM463.4 170.1H468.5V198.8H463.4V170.1Z" fill="#2C4964"/>
<path d="M492.2 160.1H497.3V170.1H506V174.2H497.3V190.9C497.3 191.9 497.7 192.9 498.6 193.7C499.3 194.4 500.4 194.7 501.9 194.7C504.3 194.7 506.4 194.1 508.3 192.9V197.8C506.4 198.8 504.4 199.3 502.1 199.3C498.7 199.3 496.2 198.5 494.7 197C493 195.3 492.1 193.4 492.1 191.4V174.2H486V170.1H492.2V160.1Z" fill="#2C4964"/>
<path d="M529.1 172.4C531 170.5 533.7 169.6 537.3 169.6C541.6 169.6 544.6 170.5 546.5 172.4C548.2 174.1 549.1 176.1 549.1 178.3V194.5C549.1 196.4 549.8 197.8 551.2 198.9H545C544.3 198.2 544 197.1 544 195.6C541.4 198.2 538.2 199.4 534.3 199.4C531.1 199.4 528.6 198.5 526.9 196.8C525.4 195.3 524.6 193.5 524.6 191.4C524.6 189 525.4 187 526.9 185.5C528.6 183.8 531 182.7 534.1 182.2C536.2 181.9 537.9 181.4 539.5 180.9C541.7 180.4 543.3 179.9 544.1 179.4C544.1 178 543.6 176.8 542.6 175.8C541.6 174.8 540.1 174.3 538.2 174.3C535.8 174.3 534.1 174.8 533.1 175.8C532.4 176.5 531.9 177.4 531.6 178.6H526C526.3 176.2 527.4 174.1 529.1 172.4ZM544 184.2C543 184.5 542 184.8 541.2 185C538.3 185.7 536.1 186.2 534.5 186.5C533.1 186.8 532.1 187.4 531.4 188C530.5 188.9 530.1 189.8 530.1 190.8C530.1 192 530.5 193 531.4 193.9C531.9 194.4 533 194.7 534.7 194.7C537.6 194.7 540 193.8 541.9 191.9C543.1 190.7 543.8 189.8 544 189.3V184.2Z" fill="#2C4964"/>
<path d="M571 155H576.1V198.8H571V155Z" fill="#2C4964"/>
<path d="M635.2 158.1C637.6 155.7 641.3 154.5 646.2 154.5C651.5 154.5 655.5 155.9 658.2 158.6C660.6 161 661.8 163.8 661.8 167.1H655.9C655.9 165 655.2 163.3 653.8 162C652.3 160.5 649.9 159.7 646.6 159.7C643 159.7 640.5 160.4 639.2 161.8C638 163 637.4 164.4 637.4 165.9C637.4 167.4 637.7 168.6 638.4 169.2C639.3 170.1 640.8 170.9 643 171.8C646.9 173.5 651.4 175.5 656.3 177.7C657.7 178.2 658.9 179.1 660.1 180.3C662 182.2 662.9 184.4 662.9 187C662.9 190.4 661.7 193.3 659.3 195.7C656.7 198.3 652.5 199.5 646.7 199.5C641.1 199.5 636.7 198 633.6 194.9C631.4 192.7 630.3 189.4 630.3 185.2H636.2C636.2 188.3 636.9 190.5 638.3 191.9C640.2 193.8 643.1 194.7 647 194.7C650.6 194.7 653.2 193.8 654.9 192.1C656.3 190.7 657 189.4 657 188C657 186.5 656.5 185.2 655.5 184.2C654.6 183.3 653.3 182.5 651.4 181.6C649.7 180.7 647.5 179.7 644.7 178.5C641.6 177.1 639.1 176 637.3 175.2C635.9 174.7 634.7 173.9 633.7 172.9C632.2 171.4 631.4 169.3 631.4 166.7C631.6 163.3 632.8 160.5 635.2 158.1Z" fill="#2C4964"/>
<path d="M679.8 169.9H685.4L694.6 192.7L703.8 169.9H709.4L696.6 200.7C695.6 203.3 694.5 205.1 693.5 206.1C692.1 207.5 690.4 208.2 688.4 208.2C686 208.2 684.5 207.9 683.8 207.2V202.3C685.2 203 686.6 203.3 688.2 203.3C689.1 203.3 689.8 203 690.5 202.3C691.2 201.6 691.7 200.7 692 199.5L679.8 169.9Z" fill="#2C4964"/>
<path d="M729.9 172.7C732 170.6 734.9 169.6 738.6 169.6C742.7 169.6 745.7 170.5 747.6 172.4C749.3 174.1 750.2 176 750.2 178H745C744.8 176.8 744.5 175.9 744 175.4C743 174.4 741.1 173.9 738.4 173.9C736.7 173.9 735.3 174.4 734.3 175.4C733.4 176.3 733 177.2 733 178.2C733 178.9 733.3 179.5 733.8 180C734.5 180.7 736.6 181.5 740.2 182.3C742.4 182.8 744.3 183.3 745.8 183.8C747.2 184.3 748.2 184.9 748.9 185.6C750.3 187 751 188.6 751 190.5C751 192.6 750.1 194.4 748.4 196.1C746.3 198.2 743.2 199.2 738.9 199.2C734.6 199.2 731.5 198.2 729.4 196.1C727.7 194.4 726.8 192.3 726.8 189.7H731.9C732.1 191.2 732.5 192.4 733.2 193C734.4 194.2 736.2 194.8 738.6 194.8C741.5 194.8 743.5 194.3 744.5 193.3C745.2 192.6 745.5 191.8 745.5 190.7C745.5 190 745.1 189.2 744.2 188.4C743.5 187.7 742.4 187.2 740.9 186.9C737.8 186.2 735.5 185.6 734 185.1C732.1 184.6 730.8 183.9 729.9 183C728.4 181.5 727.6 179.8 727.6 178.1C727.6 176.1 728.3 174.2 729.9 172.7Z" fill="#2C4964"/>
<path d="M773.2 160.1H778.3V170.1H787V174.2H778.3V190.9C778.3 191.9 778.7 192.9 779.6 193.7C780.3 194.4 781.4 194.7 782.9 194.7C785.3 194.7 787.4 194.1 789.3 192.9V197.8C787.4 198.8 785.4 199.3 783.1 199.3C779.7 199.3 777.2 198.5 775.7 197C774 195.3 773.1 193.4 773.1 191.4V174.2H766.9V170.1H773.1V160.1H773.2Z" fill="#2C4964"/>
<path d="M810.7 173.2C813.1 170.8 816.2 169.6 819.9 169.6C823.5 169.6 826.6 170.9 829.1 173.4C831.5 175.8 832.7 179.5 832.7 184.4H812C812 188 812.9 190.6 814.6 192.3C816.1 193.8 818.1 194.6 820.5 194.6C822.9 194.6 824.6 194.1 825.6 193.1C826.8 191.9 827.4 190.5 827.4 189H833C832.3 192.1 831.2 194.4 829.7 195.9C827.5 198.1 824.4 199.2 820.5 199.2C816.4 199.2 813.1 197.9 810.5 195.4C807.8 192.7 806.4 189 806.4 184.4C806.4 179.9 807.8 176.1 810.7 173.2ZM814.6 176C813.4 177.2 812.6 178.7 812.3 180.4H826.9C826.9 178.7 826.2 177.2 824.8 175.8C823.6 174.6 821.9 174 819.7 174C817.6 174 815.9 174.6 814.6 176Z" fill="#2C4964"/>
<path d="M858.2 198.8H853.1V170.1H858.2V174.5C860.4 171.3 863 169.6 865.9 169.6C869.1 169.6 871.6 170.5 873.3 172.2C874.2 173.1 874.8 174 875.4 175C877.6 171.4 880.7 169.6 884.6 169.6C887.3 169.6 889.5 170.4 891 171.9C892.7 173.6 893.6 175.5 893.6 177.5V198.8H888.5V178.5C888.5 177.5 888.2 176.6 887.5 175.9C886.5 174.9 885.3 174.4 883.9 174.4C881.5 174.4 879.5 175.2 878 176.7C876.6 178.1 875.9 179.4 875.9 180.5V198.7H870.8V178.7C870.8 177.7 870.3 176.6 869.3 175.6C868.4 174.7 867.2 174.3 865.5 174.3C863.6 174.3 862 175 860.6 176.4C859.1 177.9 858.3 179.4 858.3 180.8V198.8H858.2Z" fill="#2C4964"/>
<path d="M916.7 172.7C918.8 170.6 921.7 169.6 925.4 169.6C929.5 169.6 932.5 170.5 934.4 172.4C936.1 174.1 937 176 937 178H931.9C931.7 176.8 931.4 175.9 930.9 175.4C929.9 174.4 928 173.9 925.3 173.9C923.6 173.9 922.2 174.4 921.2 175.4C920.3 176.3 919.9 177.2 919.9 178.2C919.9 178.9 920.2 179.5 920.7 180C921.4 180.7 923.5 181.5 927.1 182.3C929.3 182.8 931.2 183.3 932.7 183.8C934.1 184.3 935.1 184.9 935.8 185.6C937.2 187 937.9 188.6 937.9 190.5C937.9 192.6 937 194.4 935.3 196.1C933.2 198.2 930.1 199.2 925.8 199.2C921.5 199.2 918.4 198.2 916.3 196.1C914.6 194.4 913.7 192.3 913.7 189.7H918.8C919 191.2 919.4 192.4 920.1 193C921.3 194.2 923.1 194.8 925.5 194.8C928.4 194.8 930.4 194.3 931.4 193.3C932.1 192.6 932.4 191.8 932.4 190.7C932.4 190 932 189.2 931.1 188.4C930.4 187.7 929.3 187.2 927.8 186.9C924.7 186.2 922.4 185.6 920.9 185.1C919 184.6 917.7 183.9 916.8 183C915.3 181.5 914.5 179.8 914.5 178.1C914.4 176.1 915.2 174.2 916.7 172.7Z" fill="#2C4964"/>
</svg>
