<svg width="125" height="125" viewBox="0 0 125 125" fill="none" xmlns="http://www.w3.org/2000/svg">
<g clip-path="url(#clip0)">
<path d="M14.3046 5.56128V119.439C14.3046 122.51 16.7946 125 19.8659 125H105.134C108.205 125 110.695 122.51 110.695 119.439V5.56128C110.695 2.48999 108.205 0 105.134 0H89.488V15.656C89.488 17.9485 87.6296 19.8066 85.3373 19.8066H40.8071C38.5146 19.8066 36.6564 17.9482 36.6564 15.656V0H19.8662C16.7946 0 14.3046 2.48999 14.3046 5.56128V5.56128ZM42.6559 39.009C43.2343 37.1951 44.9682 36.0044 46.8727 36.1279C48.7729 36.2483 50.3474 37.646 50.6923 39.5183L59.3002 86.2471L68.6215 50.1035C69.0898 48.2876 70.7175 47.0115 72.5925 46.9897C72.6083 46.9895 72.6249 46.9895 72.6411 46.9895C74.4963 46.9895 76.1286 48.2217 76.6345 50.0107L82.7199 71.5269L83.7241 70.5239C84.5024 69.7471 85.5573 69.3105 86.6569 69.3105H97.6015C99.8937 69.3105 101.752 71.1689 101.752 73.4612C101.752 75.7534 99.8937 77.6118 97.6015 77.6118H88.3742L83.5822 82.396C82.5407 83.436 81.0261 83.8467 79.6015 83.4749C78.1772 83.1033 77.0563 82.0049 76.6557 80.5884L72.8251 67.0447L62.643 106.526C62.1689 108.364 60.5109 109.64 58.6252 109.64C58.5761 109.64 58.5273 109.639 58.478 109.637C56.5314 109.569 54.8945 108.156 54.5414 106.241L45.5297 57.3164L39.9807 74.7129C39.4316 76.4341 37.8327 77.6023 36.0263 77.6023H27.3981C25.1059 77.6023 23.2475 75.7439 23.2475 73.4517C23.2475 71.1594 25.1059 69.301 27.3981 69.301H32.9933L42.6559 39.009Z" fill="#324D51"/>
<path d="M44.9576 0H81.1864V11.5051H44.9576V0Z" fill="#324D51"/>
</g>
<defs>
<clipPath id="clip0">
<rect width="125" height="125" fill="white"/>
</clipPath>
</defs>
</svg>
