<svg width="125" height="125" viewBox="0 0 125 125" fill="none" xmlns="http://www.w3.org/2000/svg">
<path d="M50.7812 5.85938H42.9688C30.0247 5.85938 19.5312 16.3528 19.5312 29.2969V76.1719H46.875V68.3594H62.5C68.9722 68.3594 74.2188 63.1128 74.2188 56.6406V29.2969C74.2188 16.3528 63.7253 5.85938 50.7812 5.85938Z" fill="#324D51"/>
<path d="M42.9688 25.3906H19.5312C17.3738 25.3906 15.625 27.1394 15.625 29.2969V56.6406C15.625 60.9553 19.1228 64.4531 23.4375 64.4531H31.25C35.5647 64.4531 39.0625 60.9553 39.0625 56.6406V46.875C43.3772 46.875 46.875 43.3772 46.875 39.0625V29.2969C46.875 27.1394 45.1262 25.3906 42.9688 25.3906Z" fill="#324D51"/>
<path d="M72.2656 44.9219H44.9219C43.8433 44.9219 42.9688 44.0474 42.9688 42.9688V35.1562H74.2188V42.9688C74.2188 44.0474 73.3442 44.9219 72.2656 44.9219Z" fill="#324D51"/>
<path d="M72.2656 44.9219H48.8281C47.7495 44.9219 46.875 44.0474 46.875 42.9688V35.1562H74.2188V42.9688C74.2188 44.0474 73.3442 44.9219 72.2656 44.9219Z" fill="#324D51"/>
<path d="M62.5 76.1719H19.5312C13.0591 76.1719 7.8125 81.4185 7.8125 87.8906V119.141H74.2188V87.8906C74.2188 81.4185 68.9722 76.1719 62.5 76.1719Z" fill="#324D51"/>
<path d="M19.5312 76.1719C13.0591 76.1719 7.8125 81.4185 7.8125 87.8906V119.141H31.25V87.8906C31.25 81.4185 26.0034 76.1719 19.5312 76.1719Z" fill="#324D51"/>
<path d="M46.875 68.3594H27.3438C23.0291 68.3594 19.5312 71.8572 19.5312 76.1719H46.875V68.3594Z" fill="#324D51"/>
<path d="M55.3386 41.6667C56.7769 41.6667 57.9429 40.5008 57.9429 39.0625C57.9429 37.6242 56.7769 36.4583 55.3386 36.4583C53.9003 36.4583 52.7344 37.6242 52.7344 39.0625C52.7344 40.5008 53.9003 41.6667 55.3386 41.6667Z" fill="#324D51"/>
<path d="M67.0574 41.6667C68.4957 41.6667 69.6616 40.5008 69.6616 39.0625C69.6616 37.6242 68.4957 36.4583 67.0574 36.4583C65.6191 36.4583 64.4531 37.6242 64.4531 39.0625C64.4531 40.5008 65.6191 41.6667 67.0574 41.6667Z" fill="#324D51"/>
<path d="M65.1042 52.7344C62.9468 52.7344 61.198 50.9856 61.198 48.8281V40.3645C65.5127 40.3645 69.0105 43.8623 69.0105 48.177V48.8281C69.0105 50.9856 67.2615 52.7344 65.1042 52.7344Z" fill="#324D51"/>
<path d="M39.0625 31.25V39.0625H35.1562V35.1562C35.1562 32.9988 36.905 31.25 39.0625 31.25Z" fill="#324D51"/>
<path d="M39.0625 35.1562V54.6875C33.6692 54.6875 29.2969 50.3152 29.2969 44.9219C29.2969 39.5286 33.6692 35.1562 39.0625 35.1562Z" fill="#324D51"/>
<path d="M35.1562 76.1719C41.6284 76.1719 46.875 81.4185 46.875 87.8906V119.141H58.5938V87.8906C58.5938 81.4185 53.3472 76.1719 46.875 76.1719H35.1562Z" fill="#324D51"/>
<path d="M68.3594 56.6406H60.5469C60.5469 58.7981 62.2957 60.5469 64.4531 60.5469C66.6106 60.5469 68.3594 58.7981 68.3594 56.6406Z" fill="#324D51"/>
<path d="M116.043 92.9409C114.518 91.4153 112.045 91.4153 110.519 92.9409L101.089 102.372C100.351 103.109 99.3699 103.516 98.3267 103.516H97.6562H87.8906C86.812 103.516 85.9375 104.39 85.9375 105.469V115.234H93.75C93.75 113.077 95.4988 111.328 97.6562 111.328H98.3264C101.457 111.328 104.399 110.109 106.613 107.896L116.043 98.4653C117.569 96.9397 117.569 94.4666 116.043 92.9409V92.9409Z" fill="#324D51"/>
<path d="M94.7266 93.75H85.9375C81.6228 93.75 78.125 97.2478 78.125 101.562V115.234H85.9375V105.469C85.9375 104.39 86.812 103.516 87.8906 103.516H94.7266C97.4233 103.516 99.6094 101.33 99.6094 98.6328C99.6094 95.936 97.4233 93.75 94.7266 93.75Z" fill="#324D51"/>
<path d="M95.7031 119.141H76.1719V117.188C76.1719 116.109 77.0464 115.234 78.125 115.234H93.75C94.8286 115.234 95.7031 116.109 95.7031 117.188V119.141Z" fill="#324D51"/>
<path d="M46.875 31.25H74.2188V35.1562H46.875V31.25Z" fill="#324D51"/>
<path d="M39.0625 31.25H46.875V35.1562H39.0625V31.25Z" fill="#324D51"/>
<path d="M89.8438 44.9219H105.469V68.3594H89.8438V44.9219Z" fill="#324D51"/>
<path d="M105.469 44.9219H89.8438C88.7651 44.9219 87.8906 44.0474 87.8906 42.9688C87.8906 41.8901 88.7651 41.0156 89.8438 41.0156H105.469C106.547 41.0156 107.422 41.8901 107.422 42.9688C107.422 44.0474 106.547 44.9219 105.469 44.9219Z" fill="#324D51"/>
<path d="M97.6562 68.3594V50.7812C97.6562 49.7026 96.7817 48.8281 95.7031 48.8281H89.8438V68.3594H97.6562Z" fill="#324D51"/>
<path d="M91.7969 48.8281H93.75V68.3594H91.7969V48.8281Z" fill="#324D51"/>
<path d="M89.8438 68.3594V80.0781C89.8438 84.3928 93.3416 87.8906 97.6562 87.8906C101.971 87.8906 105.469 84.3928 105.469 80.0781V68.3594H89.8438Z" fill="#324D51"/>
<path d="M89.8438 68.3594V80.0781C89.8438 82.2356 91.5925 83.9844 93.75 83.9844C95.9075 83.9844 97.6562 82.2356 97.6562 80.0781V68.3594H89.8438Z" fill="#324D51"/>
<path d="M91.7969 68.3594V79.1016C91.7969 79.6409 92.2341 80.0781 92.7734 80.0781C93.3127 80.0781 93.75 79.6409 93.75 79.1016V68.3594H91.7969Z" fill="#324D51"/>
<path d="M103.516 37.1094C104.594 37.1094 105.469 36.2349 105.469 35.1562C105.469 34.0776 104.594 33.2031 103.516 33.2031C102.437 33.2031 101.562 34.0776 101.562 35.1562C101.562 36.2349 102.437 37.1094 103.516 37.1094Z" fill="#324D51"/>
<path d="M93.75 29.2969C95.9074 29.2969 97.6562 27.548 97.6562 25.3906C97.6562 23.2333 95.9074 21.4844 93.75 21.4844C91.5926 21.4844 89.8438 23.2333 89.8438 25.3906C89.8438 27.548 91.5926 29.2969 93.75 29.2969Z" fill="#324D51"/>
<path d="M92.7734 25.3906C93.3128 25.3906 93.75 24.9534 93.75 24.4141C93.75 23.8747 93.3128 23.4375 92.7734 23.4375C92.2341 23.4375 91.7969 23.8747 91.7969 24.4141C91.7969 24.9534 92.2341 25.3906 92.7734 25.3906Z" fill="#324D51"/>
</svg>
