<svg width="35" height="34" viewBox="0 0 35 34" fill="none" xmlns="http://www.w3.org/2000/svg">
<path d="M34.8 22.5C32.3 22.5 30.8 20.9 28.9 19.7C27.6 18.8 26.1 18 23.9 18C22.9 18 22.1 18 21.4 18H16.3C15.6 18 14.9 18.6 14.9 19.4C14.9 20.1 15.5 20.8 16.3 20.8H19.2H21.1C22.1 21 22.8 21.8 22.8 22.8C22.8 23.6 22.4 24.2 21.7 24.6C21.5 24.6 20.8 24.8 19.8 25.1C19.2 25.3 18.6 25.4 18 25.6H17.9C15.8 26.2 13.5 26.8 13.1 26.9C12.8 26.9 12.6 26.9 12.4 26.8L4.9 21.9L3.5 20.9C3.4 20.9 3.4 20.8 3.3 20.8C3.2 20.7 3.1 20.7 3 20.7C2.9 20.7 2.8 20.7 2.7 20.6C2.6 20.6 2.5 20.6 2.4 20.6C2.3 20.6 2.1 20.6 2 20.6C0.9 20.7 0 21.6 0 22.8C0.1 23.2 0.3 23.8 0.7 24.2C0.9 24.4 1 24.5 1.2 24.6L1.7 25L13.5 33.6C13.5 33.6 13.6 33.6 13.6 33.7C13.9 33.8 14.1 33.9 14.4 33.9C14.6 33.9 14.7 33.9 14.9 33.8H15C19 32.8 27.3 30.7 31.2 29.7C31.3 29.7 31.4 29.6 31.5 29.6C32.5 29.4 33.8 29.1 34.7 29.1V28.5V27.7V22.8V22.5H34.8Z" fill="#324D51"/>
<path d="M21.8027 9.72337C20.9804 10.2071 20.7385 11.3197 21.1739 12.1421C21.6576 13.0129 22.7702 13.3031 23.641 12.8194C24.5117 12.3356 24.7536 11.223 24.2699 10.3522C23.7861 9.4815 22.6251 9.19125 21.8027 9.72337Z" fill="#324D51"/>
<path d="M19.1905 8.32048C19.3356 7.83674 19.4324 7.35299 19.4807 6.82086L18.4649 6.33711C18.4649 6.19199 18.4649 5.99849 18.4649 5.85336C18.4649 5.80499 18.4649 5.75661 18.4649 5.65986L19.4324 5.03099C19.3356 4.54724 19.1905 4.06349 18.9486 3.57974L17.836 3.67649C17.7392 3.48299 17.5941 3.28949 17.449 3.09599L17.9811 2.08012C17.6425 1.69312 17.2555 1.3545 16.8685 1.06425L15.9494 1.69312C15.7559 1.59637 15.5624 1.49962 15.3689 1.40287L15.3205 0.29025C14.8367 0.145125 14.353 0.0483749 13.8209 0L13.3371 1.01587C13.192 1.01587 12.9985 1.01587 12.8534 1.01587C12.805 1.01587 12.7566 1.01587 12.6599 1.01587L12.031 0.0483749C11.5472 0.145125 11.0635 0.29025 10.5797 0.532124L10.6765 1.64475C10.4346 1.83825 10.2411 1.98337 10.096 2.1285L9.08012 1.59637C8.69312 1.935 8.3545 2.322 8.06425 2.70899L8.69312 3.62812C8.59637 3.82162 8.49962 4.01512 8.40287 4.20862L7.29025 4.30537C7.14512 4.78912 7.04837 5.27286 7 5.80499L8.01587 6.28874C8.01587 6.43386 8.01587 6.62736 8.01587 6.77249C8.01587 6.82086 8.01587 6.86924 8.01587 6.96599L7.04837 7.59486C7.14512 8.07861 7.29025 8.56236 7.53212 9.04611L8.64475 8.94936C8.7415 9.14286 8.88662 9.33636 9.03175 9.52986L8.49962 10.5457C8.83825 10.9327 9.22525 11.2714 9.61224 11.5616L10.5314 10.9327C10.7249 11.0295 10.9184 11.1262 11.1119 11.223L11.1602 12.3356C11.644 12.4807 12.1277 12.5775 12.6599 12.6259L13.1436 11.61C13.2887 11.61 13.4822 11.61 13.6274 11.61C13.6757 11.61 13.7241 11.61 13.8209 11.61L14.4497 12.5775C14.9335 12.4807 15.4172 12.3356 15.901 12.0937L15.8042 10.9811C15.9977 10.8844 16.1912 10.7392 16.3847 10.5941L17.4006 11.1262C17.7876 10.7876 18.1262 10.4006 18.4165 10.0136L17.7876 9.09448C17.8844 8.90098 17.9811 8.70748 18.0779 8.51398L19.1905 8.32048ZM13.2404 10.0136C11.2086 10.0136 9.56387 8.36886 9.56387 6.33711C9.56387 4.30537 11.2086 2.66062 13.2404 2.66062C15.2721 2.66062 16.9169 4.30537 16.9169 6.33711C16.9169 8.36886 15.2721 10.0136 13.2404 10.0136Z" fill="#324D51"/>
<path d="M9.80573 6.28874C9.80573 8.17537 11.3537 9.72336 13.2403 9.72336C15.127 9.72336 16.675 8.17537 16.675 6.28874C16.675 4.40212 15.127 2.85413 13.2403 2.85413C11.3537 2.85413 9.80573 4.40212 9.80573 6.28874ZM15.8042 6.09524C15.9493 7.54649 14.8851 8.80424 13.4338 8.90099C12.031 9.04611 10.7248 7.98187 10.6281 6.53062C10.483 5.07937 11.5472 3.82162 12.9985 3.72487C14.4497 3.57975 15.7075 4.644 15.8042 6.09524Z" fill="#324D51"/>
<path d="M27.4626 11.7551C27.511 11.4165 27.511 11.0779 27.4626 10.7392L26.6402 10.5457C26.5918 10.3522 26.5435 10.1104 26.4467 9.91687L27.0272 9.33637C26.9788 9.19125 26.8821 9.04612 26.7853 8.901C26.6886 8.75587 26.5918 8.61075 26.4951 8.46562L25.7211 8.7075C25.576 8.56237 25.4308 8.36887 25.2373 8.27212L25.4792 7.49812C25.189 7.30462 24.8987 7.11112 24.5601 7.01437L23.9796 7.59487C23.7861 7.5465 23.5442 7.44975 23.3507 7.44975L23.1572 6.62738C22.8186 6.579 22.48 6.579 22.1413 6.62738L21.9478 7.44975C21.7543 7.49812 21.5125 7.5465 21.319 7.64325L20.7385 7.06275C20.5933 7.11112 20.4482 7.20787 20.3031 7.30462C20.158 7.40137 20.0128 7.49812 19.8677 7.59487L20.1096 8.36887C19.9645 8.514 19.771 8.65912 19.6742 8.85262L18.9002 8.61075C18.7067 8.901 18.5132 9.19125 18.4165 9.52987L18.997 10.1104C18.9486 10.3039 18.8518 10.5457 18.8518 10.7392L18.0778 10.9327C18.0295 11.2714 18.0295 11.61 18.0778 11.9486L18.9002 12.1421C18.9486 12.3356 18.997 12.5775 19.0937 12.771L18.4165 13.2547C18.4648 13.3999 18.5616 13.545 18.6583 13.6901C18.7551 13.8352 18.8518 13.9804 18.9486 14.1255L19.7226 13.8836C19.8677 14.0287 20.0128 14.2222 20.2063 14.319L20.0128 15.093C20.3031 15.2865 20.5933 15.48 20.932 15.5767L21.5125 14.9962C21.706 15.0446 21.9478 15.1414 22.1413 15.1414L22.3348 15.9637C22.6735 16.0121 23.0121 16.0121 23.3507 15.9637L23.5442 15.1414C23.7377 15.093 23.9796 15.0446 24.1731 14.9479L24.7536 15.5284C24.8987 15.48 25.0438 15.3832 25.189 15.2865C25.3341 15.1897 25.4792 15.093 25.6243 14.9962L25.3825 14.2222C25.5276 14.0771 25.7211 13.932 25.8178 13.7385L26.5918 13.9804C26.7853 13.6901 26.9788 13.3999 27.0756 13.0612L26.4951 12.4807C26.5435 12.2872 26.6402 12.0454 26.6402 11.8519L27.4626 11.7551ZM22.6735 14.3674C20.9803 14.319 19.6258 12.9161 19.6742 11.223C19.7226 9.52987 21.1255 8.17537 22.8186 8.22375C24.5117 8.27212 25.8662 9.67499 25.8178 11.3681C25.7695 13.0612 24.3666 14.4157 22.6735 14.3674Z" fill="#324D51"/>
<path d="M19.6742 11.223C19.6259 12.9161 20.9804 14.319 22.6735 14.3673C24.3666 14.4157 25.7695 13.0612 25.8178 11.3681C25.8662 9.67497 24.5117 8.2721 22.8186 8.22372C21.0771 8.22372 19.6742 9.52985 19.6742 11.223ZM25.6727 11.3681C25.6243 13.0128 24.2698 14.2706 22.6735 14.2706C21.0287 14.2222 19.771 12.8677 19.771 11.2713C19.8194 9.6266 21.1739 8.36885 22.7702 8.36885C24.415 8.41722 25.7211 9.72335 25.6727 11.3681Z" fill="#324D51"/>
</svg>
