<svg width="125" height="125" viewBox="0 0 125 125" fill="none" xmlns="http://www.w3.org/2000/svg">
<path d="M56.6406 29.2969C56.6406 28.7789 56.8464 28.2821 57.2127 27.9158C57.579 27.5495 58.0757 27.3438 58.5938 27.3438H66.4062C66.9243 27.3438 67.421 27.5495 67.7873 27.9158C68.1536 28.2821 68.3594 28.7789 68.3594 29.2969V35.1562H72.2656V15.625H68.3594V21.4844C68.3594 22.0024 68.1536 22.4992 67.7873 22.8654C67.421 23.2317 66.9243 23.4375 66.4062 23.4375H58.5938C58.0757 23.4375 57.579 23.2317 57.2127 22.8654C56.8464 22.4992 56.6406 22.0024 56.6406 21.4844V15.625H52.7344V35.1562H56.6406V29.2969Z" fill="#324D51"/>
<path d="M60.5469 66.4062V70.3125H64.4531V66.4062C64.4531 65.8882 64.6589 65.3915 65.0252 65.0252C65.3915 64.6589 65.8882 64.4531 66.4062 64.4531H70.3125V60.5469H66.4062C65.8882 60.5469 65.3915 60.3411 65.0252 59.9748C64.6589 59.6085 64.4531 59.1118 64.4531 58.5938V54.6875H60.5469V58.5938C60.5469 59.1118 60.3411 59.6085 59.9748 59.9748C59.6085 60.3411 59.1118 60.5469 58.5938 60.5469H54.6875V64.4531H58.5938C59.1118 64.4531 59.6085 64.6589 59.9748 65.0252C60.3411 65.3915 60.5469 65.8882 60.5469 66.4062Z" fill="#324D51"/>
<path d="M39.0625 117.188H48.8281V99.6094C48.8281 95.9834 50.2686 92.5059 52.8325 89.9419C55.3965 87.3779 58.874 85.9375 62.5 85.9375C66.126 85.9375 69.6035 87.3779 72.1675 89.9419C74.7315 92.5059 76.1719 95.9834 76.1719 99.6094V117.188H85.9375V7.8125H39.0625V117.188ZM48.8281 13.6719C48.8281 13.1539 49.0339 12.6571 49.4002 12.2908C49.7665 11.9245 50.2632 11.7187 50.7812 11.7188H58.5938C59.1118 11.7188 59.6085 11.9245 59.9748 12.2908C60.3411 12.6571 60.5469 13.1539 60.5469 13.6719V19.5312H64.4531V13.6719C64.4531 13.1539 64.6589 12.6571 65.0252 12.2908C65.3915 11.9245 65.8882 11.7187 66.4062 11.7188H74.2188C74.7368 11.7188 75.2335 11.9245 75.5998 12.2908C75.9661 12.6571 76.1719 13.1539 76.1719 13.6719V37.1094C76.1719 37.6274 75.9661 38.1242 75.5998 38.4904C75.2335 38.8567 74.7368 39.0625 74.2188 39.0625H66.4062C65.8882 39.0625 65.3915 38.8567 65.0252 38.4904C64.6589 38.1242 64.4531 37.6274 64.4531 37.1094V31.25H60.5469V37.1094C60.5469 37.6274 60.3411 38.1242 59.9748 38.4904C59.6085 38.8567 59.1118 39.0625 58.5938 39.0625H50.7812C50.2632 39.0625 49.7665 38.8567 49.4002 38.4904C49.0339 38.1242 48.8281 37.6274 48.8281 37.1094V13.6719ZM62.5 42.9688C66.3629 42.9687 70.1391 44.1142 73.351 46.2604C76.5629 48.4065 79.0662 51.4568 80.5445 55.0257C82.0228 58.5946 82.4096 62.5217 81.656 66.3104C80.9023 70.0991 79.0422 73.5792 76.3107 76.3107C73.5792 79.0422 70.0991 80.9023 66.3104 81.656C62.5217 82.4096 58.5946 82.0228 55.0257 80.5445C51.4568 79.0662 48.4065 76.5629 46.2604 73.351C44.1142 70.1391 42.9688 66.3629 42.9688 62.5C42.9744 57.3217 45.034 52.3572 48.6956 48.6956C52.3572 45.034 57.3217 42.9744 62.5 42.9688Z" fill="#324D51"/>
<path d="M15.625 109.375H27.3438V117.188H15.625V109.375Z" fill="#324D51"/>
<path d="M62.5 89.8438C59.91 89.8438 57.4261 90.8726 55.5947 92.704C53.7633 94.5354 52.7344 97.0194 52.7344 99.6094V117.188H72.2656V99.6094C72.2656 97.0194 71.2367 94.5354 69.4053 92.704C67.5739 90.8726 65.09 89.8438 62.5 89.8438V89.8438Z" fill="#324D51"/>
<path d="M97.6562 109.375H109.375V117.188H97.6562V109.375Z" fill="#324D51"/>
<path d="M7.8125 48.8281V117.188H11.7188V107.422C11.7188 106.904 11.9245 106.407 12.2908 106.041C12.6571 105.675 13.1539 105.469 13.6719 105.469H29.2969C29.8149 105.469 30.3117 105.675 30.6779 106.041C31.0442 106.407 31.25 106.904 31.25 107.422V117.188H35.1562V46.875H9.76562C9.24762 46.875 8.75084 47.0808 8.38456 47.4471C8.01828 47.8133 7.8125 48.3101 7.8125 48.8281V48.8281ZM27.3438 50.7812H31.25V54.6875H27.3438V50.7812ZM27.3438 58.5938H31.25V62.5H27.3438V58.5938ZM27.3438 66.4062H31.25V70.3125H27.3438V66.4062ZM27.3438 74.2188H31.25V78.125H27.3438V74.2188ZM27.3438 82.0312H31.25V85.9375H27.3438V82.0312ZM27.3438 89.8438H31.25V93.75H27.3438V89.8438ZM27.3438 97.6562H31.25V101.562H27.3438V97.6562ZM19.5312 50.7812H23.4375V54.6875H19.5312V50.7812ZM19.5312 58.5938H23.4375V62.5H19.5312V58.5938ZM19.5312 66.4062H23.4375V70.3125H19.5312V66.4062ZM19.5312 74.2188H23.4375V78.125H19.5312V74.2188ZM19.5312 82.0312H23.4375V85.9375H19.5312V82.0312ZM19.5312 89.8438H23.4375V93.75H19.5312V89.8438ZM19.5312 97.6562H23.4375V101.562H19.5312V97.6562ZM11.7188 50.7812H15.625V54.6875H11.7188V50.7812ZM11.7188 58.5938H15.625V62.5H11.7188V58.5938ZM11.7188 66.4062H15.625V70.3125H11.7188V66.4062ZM11.7188 74.2188H15.625V78.125H11.7188V74.2188ZM11.7188 82.0312H15.625V85.9375H11.7188V82.0312ZM11.7188 89.8438H15.625V93.75H11.7188V89.8438ZM11.7188 97.6562H15.625V101.562H11.7188V97.6562Z" fill="#324D51"/>
<path d="M62.5 78.125C65.5903 78.125 68.6113 77.2086 71.1808 75.4917C73.7503 73.7748 75.753 71.3345 76.9356 68.4794C78.1182 65.6243 78.4277 62.4827 77.8248 59.4517C77.2219 56.4208 75.7337 53.6367 73.5485 51.4515C71.3633 49.2663 68.5792 47.7781 65.5483 47.1752C62.5173 46.5723 59.3757 46.8818 56.5206 48.0644C53.6655 49.247 51.2252 51.2497 49.5083 53.8192C47.7914 56.3887 46.875 59.4097 46.875 62.5C46.8797 66.6426 48.5273 70.6142 51.4566 73.5434C54.3858 76.4727 58.3574 78.1204 62.5 78.125V78.125ZM50.7812 66.4063V58.5938C50.7812 58.0758 50.987 57.579 51.3533 57.2127C51.7196 56.8464 52.2164 56.6406 52.7344 56.6406H56.6406V52.7344C56.6406 52.2164 56.8464 51.7196 57.2127 51.3533C57.579 50.987 58.0757 50.7813 58.5938 50.7813H66.4062C66.9243 50.7813 67.421 50.987 67.7873 51.3533C68.1536 51.7196 68.3594 52.2164 68.3594 52.7344V56.6406H72.2656C72.7836 56.6406 73.2804 56.8464 73.6467 57.2127C74.013 57.579 74.2188 58.0758 74.2188 58.5938V66.4063C74.2188 66.9243 74.013 67.421 73.6467 67.7873C73.2804 68.1536 72.7836 68.3594 72.2656 68.3594H68.3594V72.2656C68.3594 72.7836 68.1536 73.2804 67.7873 73.6467C67.421 74.013 66.9243 74.2188 66.4062 74.2188H58.5938C58.0757 74.2188 57.579 74.013 57.2127 73.6467C56.8464 73.2804 56.6406 72.7836 56.6406 72.2656V68.3594H52.7344C52.2164 68.3594 51.7196 68.1536 51.3533 67.7873C50.987 67.421 50.7812 66.9243 50.7812 66.4063Z" fill="#324D51"/>
<path d="M115.234 46.875H89.8438V117.188H93.75V107.422C93.75 106.904 93.9558 106.407 94.3221 106.041C94.6883 105.675 95.1851 105.469 95.7031 105.469H111.328C111.846 105.469 112.343 105.675 112.709 106.041C113.075 106.407 113.281 106.904 113.281 107.422V117.188H117.188V48.8281C117.188 48.3101 116.982 47.8133 116.615 47.4471C116.249 47.0808 115.752 46.875 115.234 46.875ZM97.6562 101.562H93.75V97.6562H97.6562V101.562ZM97.6562 93.75H93.75V89.8438H97.6562V93.75ZM97.6562 85.9375H93.75V82.0312H97.6562V85.9375ZM97.6562 78.125H93.75V74.2188H97.6562V78.125ZM97.6562 70.3125H93.75V66.4062H97.6562V70.3125ZM97.6562 62.5H93.75V58.5938H97.6562V62.5ZM97.6562 54.6875H93.75V50.7812H97.6562V54.6875ZM105.469 101.562H101.562V97.6562H105.469V101.562ZM105.469 93.75H101.562V89.8438H105.469V93.75ZM105.469 85.9375H101.562V82.0312H105.469V85.9375ZM105.469 78.125H101.562V74.2188H105.469V78.125ZM105.469 70.3125H101.562V66.4062H105.469V70.3125ZM105.469 62.5H101.562V58.5938H105.469V62.5ZM105.469 54.6875H101.562V50.7812H105.469V54.6875ZM113.281 101.562H109.375V97.6562H113.281V101.562ZM113.281 93.75H109.375V89.8438H113.281V93.75ZM113.281 85.9375H109.375V82.0312H113.281V85.9375ZM113.281 78.125H109.375V74.2188H113.281V78.125ZM113.281 70.3125H109.375V66.4062H113.281V70.3125ZM113.281 62.5H109.375V58.5938H113.281V62.5ZM113.281 54.6875H109.375V50.7812H113.281V54.6875Z" fill="#324D51"/>
</svg>
