<svg width="125" height="125" viewBox="0 0 125 125" fill="none" xmlns="http://www.w3.org/2000/svg">
<path d="M35.1562 89.8438H39.0625V93.75H35.1562V89.8438Z" fill="white"/>
<path d="M35.1562 105.469H39.0625V109.375H35.1562V105.469Z" fill="white"/>
<path d="M35.1562 74.2188H39.0625V78.125H35.1562V74.2188Z" fill="white"/>
<path d="M50.7812 105.469H54.6875V109.375H50.7812V105.469Z" fill="white"/>
<path d="M58.5938 46.875H15.625C14.5894 46.8762 13.5965 47.2882 12.8642 48.0205C12.1319 48.7528 11.72 49.7456 11.7188 50.7812V113.281C11.72 114.317 12.1319 115.31 12.8642 116.042C13.5965 116.774 14.5894 117.186 15.625 117.188H58.5938C59.6294 117.186 60.6222 116.774 61.3545 116.042C62.0868 115.31 62.4988 114.317 62.5 113.281V50.7812C62.4988 49.7456 62.0868 48.7528 61.3545 48.0205C60.6222 47.2882 59.6294 46.8762 58.5938 46.875V46.875ZM27.3438 111.328C27.3438 111.846 27.138 112.343 26.7717 112.709C26.4054 113.075 25.9086 113.281 25.3906 113.281H17.5781C17.0601 113.281 16.5633 113.075 16.1971 112.709C15.8308 112.343 15.625 111.846 15.625 111.328V103.516C15.625 102.998 15.8308 102.501 16.1971 102.135C16.5633 101.768 17.0601 101.562 17.5781 101.562H25.3906C25.9086 101.562 26.4054 101.768 26.7717 102.135C27.138 102.501 27.3438 102.998 27.3438 103.516V111.328ZM27.3438 95.7031C27.3438 96.2211 27.138 96.7179 26.7717 97.0842C26.4054 97.4505 25.9086 97.6562 25.3906 97.6562H17.5781C17.0601 97.6562 16.5633 97.4505 16.1971 97.0842C15.8308 96.7179 15.625 96.2211 15.625 95.7031V87.8906C15.625 87.3726 15.8308 86.8758 16.1971 86.5096C16.5633 86.1433 17.0601 85.9375 17.5781 85.9375H25.3906C25.9086 85.9375 26.4054 86.1433 26.7717 86.5096C27.138 86.8758 27.3438 87.3726 27.3438 87.8906V95.7031ZM27.3438 80.0781C27.3438 80.5961 27.138 81.0929 26.7717 81.4592C26.4054 81.8255 25.9086 82.0312 25.3906 82.0312H17.5781C17.0601 82.0312 16.5633 81.8255 16.1971 81.4592C15.8308 81.0929 15.625 80.5961 15.625 80.0781V72.2656C15.625 71.7476 15.8308 71.2508 16.1971 70.8846C16.5633 70.5183 17.0601 70.3125 17.5781 70.3125H25.3906C25.9086 70.3125 26.4054 70.5183 26.7717 70.8846C27.138 71.2508 27.3438 71.7476 27.3438 72.2656V80.0781ZM42.9688 111.328C42.9688 111.846 42.763 112.343 42.3967 112.709C42.0304 113.075 41.5336 113.281 41.0156 113.281H33.2031C32.6851 113.281 32.1883 113.075 31.8221 112.709C31.4558 112.343 31.25 111.846 31.25 111.328V103.516C31.25 102.998 31.4558 102.501 31.8221 102.135C32.1883 101.768 32.6851 101.562 33.2031 101.562H41.0156C41.5336 101.562 42.0304 101.768 42.3967 102.135C42.763 102.501 42.9688 102.998 42.9688 103.516V111.328ZM42.9688 95.7031C42.9688 96.2211 42.763 96.7179 42.3967 97.0842C42.0304 97.4505 41.5336 97.6562 41.0156 97.6562H33.2031C32.6851 97.6562 32.1883 97.4505 31.8221 97.0842C31.4558 96.7179 31.25 96.2211 31.25 95.7031V87.8906C31.25 87.3726 31.4558 86.8758 31.8221 86.5096C32.1883 86.1433 32.6851 85.9375 33.2031 85.9375H41.0156C41.5336 85.9375 42.0304 86.1433 42.3967 86.5096C42.763 86.8758 42.9688 87.3726 42.9688 87.8906V95.7031ZM42.9688 80.0781C42.9688 80.5961 42.763 81.0929 42.3967 81.4592C42.0304 81.8255 41.5336 82.0312 41.0156 82.0312H33.2031C32.6851 82.0312 32.1883 81.8255 31.8221 81.4592C31.4558 81.0929 31.25 80.5961 31.25 80.0781V72.2656C31.25 71.7476 31.4558 71.2508 31.8221 70.8846C32.1883 70.5183 32.6851 70.3125 33.2031 70.3125H41.0156C41.5336 70.3125 42.0304 70.5183 42.3967 70.8846C42.763 71.2508 42.9688 71.7476 42.9688 72.2656V80.0781ZM58.5938 111.328C58.5938 111.846 58.388 112.343 58.0217 112.709C57.6554 113.075 57.1586 113.281 56.6406 113.281H48.8281C48.3101 113.281 47.8133 113.075 47.4471 112.709C47.0808 112.343 46.875 111.846 46.875 111.328V103.516C46.875 102.998 47.0808 102.501 47.4471 102.135C47.8133 101.768 48.3101 101.562 48.8281 101.562H56.6406C57.1586 101.562 57.6554 101.768 58.0217 102.135C58.388 102.501 58.5938 102.998 58.5938 103.516V111.328ZM58.5938 95.7031C58.5938 96.2211 58.388 96.7179 58.0217 97.0842C57.6554 97.4505 57.1586 97.6562 56.6406 97.6562H48.8281C48.3101 97.6562 47.8133 97.4505 47.4471 97.0842C47.0808 96.7179 46.875 96.2211 46.875 95.7031V87.8906C46.875 87.3726 47.0808 86.8758 47.4471 86.5096C47.8133 86.1433 48.3101 85.9375 48.8281 85.9375H56.6406C57.1586 85.9375 57.6554 86.1433 58.0217 86.5096C58.388 86.8758 58.5938 87.3726 58.5938 87.8906V95.7031ZM58.5938 80.0781C58.5938 80.5961 58.388 81.0929 58.0217 81.4592C57.6554 81.8255 57.1586 82.0312 56.6406 82.0312H48.8281C48.3101 82.0312 47.8133 81.8255 47.4471 81.4592C47.0808 81.0929 46.875 80.5961 46.875 80.0781V72.2656C46.875 71.7476 47.0808 71.2508 47.4471 70.8846C47.8133 70.5183 48.3101 70.3125 48.8281 70.3125H56.6406C57.1586 70.3125 57.6554 70.5183 58.0217 70.8846C58.388 71.2508 58.5938 71.7476 58.5938 72.2656V80.0781ZM58.5938 60.5469C58.5919 62.1003 57.974 63.5896 56.8756 64.6881C55.7771 65.7865 54.2878 66.4044 52.7344 66.4062H21.4844C19.9309 66.4044 18.4416 65.7865 17.3432 64.6881C16.2447 63.5896 15.6268 62.1003 15.625 60.5469V56.6406C15.6268 55.0872 16.2447 53.5979 17.3432 52.4994C18.4416 51.401 19.9309 50.7831 21.4844 50.7812H52.7344C54.2878 50.7831 55.7771 51.401 56.8756 52.4994C57.974 53.5979 58.5919 55.0872 58.5938 56.6406V60.5469Z" fill="white"/>
<path d="M50.7812 74.2188H54.6875V78.125H50.7812V74.2188Z" fill="white"/>
<path d="M107.422 25.3906H103.516V101.562C103.516 102.599 103.927 103.592 104.66 104.325C105.392 105.057 106.386 105.469 107.422 105.469C108.458 105.469 109.451 105.057 110.184 104.325C110.917 103.592 111.328 102.599 111.328 101.562V29.2969C111.327 28.2612 110.915 27.2684 110.183 26.5361C109.45 25.8038 108.458 25.3919 107.422 25.3906V25.3906Z" fill="white"/>
<path d="M19.5312 74.2188H23.4375V78.125H19.5312V74.2188Z" fill="white"/>
<path d="M99.6094 7.8125H93.75V8.78906C93.75 10.6021 93.0298 12.3408 91.7478 13.6228C90.4658 14.9048 88.7271 15.625 86.9141 15.625C85.1011 15.625 83.3623 14.9048 82.0803 13.6228C80.7983 12.3408 80.0781 10.6021 80.0781 8.78906V7.8125H74.2188V8.78906C74.2188 10.6021 73.4985 12.3408 72.2165 13.6228C70.9346 14.9048 69.1958 15.625 67.3828 15.625C65.5698 15.625 63.8311 14.9048 62.5491 13.6228C61.2671 12.3408 60.5469 10.6021 60.5469 8.78906V7.8125H54.6875V8.78906C54.6875 10.6021 53.9673 12.3408 52.6853 13.6228C51.4033 14.9048 49.6646 15.625 47.8516 15.625C46.0386 15.625 44.2998 14.9048 43.0178 13.6228C41.7358 12.3408 41.0156 10.6021 41.0156 8.78906V7.8125H35.1562V8.78906C35.1562 10.6021 34.436 12.3408 33.1541 13.6228C31.8721 14.9048 30.1333 15.625 28.3203 15.625C26.5073 15.625 24.7686 14.9048 23.4866 13.6228C22.2046 12.3408 21.4844 10.6021 21.4844 8.78906V7.8125H17.5781V42.9688H58.5938C60.665 42.9711 62.6508 43.7949 64.1154 45.2595C65.5801 46.7242 66.4039 48.71 66.4062 50.7812V105.469H100.66C99.971 104.282 99.6083 102.935 99.6094 101.562V7.8125ZM29.2969 37.1094H25.3906V21.4844H29.2969V37.1094ZM37.1094 31.25H33.2031V21.4844H37.1094V31.25ZM44.9219 31.25H41.0156V21.4844H44.9219V31.25ZM52.7344 31.25H48.8281V21.4844H52.7344V31.25ZM60.5469 35.1562H56.6406V21.4844H60.5469V35.1562ZM87.8906 21.4844H91.7969V37.1094H87.8906V21.4844ZM80.0781 21.4844H83.9844V31.25H80.0781V21.4844ZM72.2656 21.4844H76.1719V31.25H72.2656V21.4844ZM68.3594 31.25H64.4531V21.4844H68.3594V31.25ZM85.9375 99.6094H82.0312V95.7031H85.9375V99.6094ZM87.8906 89.8438H72.2656V85.9375H87.8906V89.8438ZM93.75 99.6094H89.8438V95.7031H93.75V99.6094ZM93.75 82.0312H72.2656V78.125H93.75V82.0312ZM93.75 74.2188H72.2656V70.3125H93.75V74.2188ZM93.75 66.4062H72.2656V62.5H93.75V66.4062ZM72.2656 58.5938V54.6875H76.1719V58.5938H72.2656ZM93.75 58.5938H80.0781V54.6875H93.75V58.5938ZM93.75 46.875H70.3125V42.9688H93.75V46.875Z" fill="white"/>
<path d="M50.7812 89.8438H54.6875V93.75H50.7812V89.8438Z" fill="white"/>
<path d="M19.5312 89.8438H23.4375V93.75H19.5312V89.8438Z" fill="white"/>
<path d="M52.7344 54.6875H21.4844C20.4057 54.6875 19.5312 55.5619 19.5312 56.6406V60.5469C19.5312 61.6256 20.4057 62.5 21.4844 62.5H52.7344C53.8131 62.5 54.6875 61.6256 54.6875 60.5469V56.6406C54.6875 55.5619 53.8131 54.6875 52.7344 54.6875Z" fill="white"/>
<path d="M19.5312 105.469H23.4375V109.375H19.5312V105.469Z" fill="white"/>
</svg>
