<svg width="125" height="125" viewBox="0 0 125 125" fill="none" xmlns="http://www.w3.org/2000/svg">
<path d="M63.7451 68.3594H55.9326V48.8281H46.6553C45.2908 48.8281 43.9451 49.1458 42.7247 49.756C41.5043 50.3662 40.4427 51.2522 39.624 52.3437L33.0078 61.1663C32.236 62.1953 31.6996 63.3811 31.4362 64.6401C31.1728 65.8991 31.189 67.2006 31.4836 68.4526L38.3545 97.6562V119.141H63.7451V101.562L66.9331 97.5774C69.9266 93.8353 71.5576 89.1859 71.5576 84.3938C71.5575 80.3357 70.1763 76.3984 67.6413 73.2295L63.7451 68.3594Z" fill="#324D51"/>
<path d="M71.3134 68.3594L73.0334 72.6597C73.3002 73.3268 73.417 74.0444 73.3754 74.7617C73.3338 75.4791 73.1348 76.1784 72.7926 76.8102C72.4504 77.4419 71.9733 77.9907 71.3952 78.4174C70.8171 78.8441 70.1523 79.1384 69.4477 79.2793C68.326 79.5036 67.1612 79.3281 66.1554 78.7833C65.1496 78.2385 64.3662 77.3587 63.9413 76.2966L61.5478 70.3125L71.3134 68.3594Z" fill="#324D51"/>
<path d="M71.35 78.4546C70.783 78.8636 70.1342 79.1451 69.4482 79.2798C69.1314 79.3428 68.8092 79.3746 68.4863 79.375C67.5081 79.3744 66.5525 79.0808 65.7427 78.532C64.9329 77.9833 64.306 77.2047 63.9428 76.2964L61.5478 70.3125L65.4199 69.5386L68.6303 73.5498C69.8067 75.0199 70.7262 76.6782 71.35 78.4546V78.4546Z" fill="#324D51"/>
<path d="M66.4062 54.6875L72.2084 65.7122C72.5226 66.4978 72.5994 67.3584 72.4293 68.1873C72.2591 69.0162 71.8495 69.7769 71.2512 70.3753C70.7912 70.8352 70.2334 71.1854 69.6193 71.3999C69.0052 71.6143 68.3507 71.6875 67.7044 71.6138C67.0581 71.5402 66.4368 71.3218 65.8867 70.9747C65.3365 70.6277 64.8718 70.161 64.527 69.6094L57.6415 58.5938L66.4062 54.6875Z" fill="#324D51"/>
<path d="M66.9286 71.4526C65.9305 71.1505 65.0766 70.4952 64.5263 69.6094L57.6415 58.5937L63.8378 55.8325L64.4531 68.3594L66.9286 71.4526Z" fill="#324D51"/>
<path d="M50.0732 60.5469H46.167C45.649 60.5469 45.1522 60.3411 44.7859 59.9748C44.4196 59.6085 44.2139 59.1118 44.2139 58.5938C44.2139 58.0757 44.4196 57.579 44.7859 57.2127C45.1522 56.8464 45.649 56.6406 46.167 56.6406H50.0732C50.5912 56.6406 51.088 56.8464 51.4543 57.2127C51.8206 57.579 52.0264 58.0757 52.0264 58.5938C52.0264 59.1118 51.8206 59.6085 51.4543 59.9748C51.088 60.3411 50.5912 60.5469 50.0732 60.5469Z" fill="#324D51"/>
<path d="M44.2163 70.3125C43.7969 70.3129 43.3885 70.1783 43.0516 69.9287C42.7146 69.679 42.4669 69.3275 42.3452 68.9262C42.2235 68.5248 42.2342 68.095 42.3758 67.7002C42.5173 67.3054 42.7821 66.9667 43.1311 66.7341L50.4553 61.8513C50.6687 61.706 50.9087 61.6044 51.1615 61.5525C51.4143 61.5005 51.675 61.4991 51.9283 61.5485C52.1817 61.5979 52.4227 61.697 52.6375 61.84C52.8523 61.9831 53.0367 62.1674 53.1799 62.3821C53.323 62.5969 53.4222 62.8379 53.4717 63.0912C53.5212 63.3446 53.5199 63.6052 53.4681 63.858C53.4162 64.1109 53.3147 64.351 53.1695 64.5643C53.0243 64.7777 52.8382 64.9602 52.6221 65.1013L45.2979 69.9841C44.9778 70.1982 44.6014 70.3125 44.2163 70.3125V70.3125Z" fill="#324D51"/>
<path d="M70.3125 83.9844L50.7812 72.2656H48.8281L49.4336 48.9209C49.4336 48.8892 49.436 48.8599 49.4385 48.8281H55.9326V68.3594H62.5L66.6528 73.5498C69.0217 76.5118 70.3124 80.1916 70.3125 83.9844V83.9844Z" fill="#324D51"/>
<path d="M66.9287 71.4526C65.9306 71.1505 65.0766 70.4952 64.5264 69.6094L57.6416 58.5937L63.8379 55.8325L64.4531 68.3594L66.9287 71.4526Z" fill="#324D51"/>
<path d="M71.3501 78.4546C70.7831 78.8636 70.1343 79.1451 69.4482 79.2798C69.1315 79.3428 68.8093 79.3746 68.4863 79.375C67.5081 79.3744 66.5526 79.0808 65.7428 78.532C64.933 77.9833 64.3061 77.2047 63.9429 76.2964L61.5479 70.3125L65.4199 69.5386L68.6304 73.5498C69.8067 75.0199 70.7262 76.6782 71.3501 78.4546V78.4546Z" fill="#324D51"/>
<path d="M99.0618 31.8184L67.6738 63.2061L36.2861 31.8184C34.8741 30.4063 33.754 28.7299 32.9898 26.885C32.2256 25.04 31.8323 23.0626 31.8323 21.0657C31.8323 17.0327 33.4344 13.1649 36.2861 10.3132C39.1378 7.46146 43.0056 5.85938 47.0386 5.85938C49.0355 5.85937 51.0129 6.2527 52.8578 7.01689C54.7027 7.78109 56.379 8.90118 57.791 10.3132L67.6738 20.196L77.5566 10.3132C78.9687 8.90118 80.6451 7.78108 82.49 7.01688C84.335 6.25269 86.3124 5.85937 88.3093 5.85938C92.3423 5.85938 96.2101 7.46146 99.0618 10.3132C101.914 13.1649 103.516 17.0327 103.516 21.0657C103.516 23.0626 103.122 25.04 102.358 26.885C101.594 28.7299 100.474 30.4063 99.0618 31.8184V31.8184Z" fill="#324D51"/>
<path d="M70.4484 53.5381C70.0622 53.5381 69.6846 53.4235 69.3635 53.2089C69.0423 52.9943 68.792 52.6893 68.6442 52.3325C68.4964 51.9756 68.4577 51.5829 68.533 51.2041C68.6083 50.8253 68.7943 50.4773 69.0673 50.2041L71.0205 48.251C71.2011 48.0663 71.4165 47.9193 71.6543 47.8184C71.8922 47.7175 72.1476 47.6649 72.406 47.6634C72.6643 47.662 72.9203 47.7118 73.1593 47.81C73.3982 47.9082 73.6153 48.0528 73.798 48.2354C73.9806 48.4181 74.1252 48.6352 74.2234 48.8741C74.3216 49.1131 74.3714 49.3691 74.37 49.6274C74.3685 49.8858 74.3159 50.1412 74.215 50.3791C74.1142 50.6169 73.9671 50.8323 73.7824 51.013L71.8293 52.9661C71.6482 53.1477 71.4329 53.2917 71.1959 53.3899C70.959 53.488 70.7049 53.5384 70.4484 53.5381V53.5381Z" fill="#324D51"/>
<path d="M77.2844 46.7022C76.8981 46.7021 76.5206 46.5876 76.1994 46.373C75.8783 46.1584 75.6279 45.8534 75.4801 45.4965C75.3323 45.1397 75.2936 44.747 75.3689 44.3682C75.4442 43.9893 75.6302 43.6413 75.9033 43.3682L80.7861 38.4854C80.9667 38.3007 81.1821 38.1536 81.42 38.0528C81.6578 37.9519 81.9133 37.8992 82.1716 37.8978C82.4299 37.8964 82.686 37.9462 82.9249 38.0444C83.1638 38.1425 83.3809 38.2872 83.5636 38.4698C83.7463 38.6525 83.8909 38.8696 83.9891 39.1085C84.0872 39.3475 84.1371 39.6035 84.1356 39.8618C84.1342 40.1201 84.0815 40.3756 83.9806 40.6134C83.8798 40.8513 83.7328 41.0667 83.5481 41.2473L78.6652 46.1301C78.4841 46.3118 78.2689 46.4558 78.0319 46.5539C77.7949 46.6521 77.5409 46.7025 77.2844 46.7022V46.7022Z" fill="#324D51"/>
<path d="M71.5576 83.9844C71.5575 80.1914 70.2666 76.5114 67.8972 73.5496L63.7451 68.3594L62.7817 48.728C62.7055 47.1753 62.0351 45.7112 60.9093 44.6391C59.7835 43.567 58.2885 42.969 56.7338 42.9688C55.1458 42.9689 53.6214 43.5928 52.4889 44.706C51.3565 45.8192 50.7065 47.3327 50.6791 48.9204L50.0732 83.9844H71.5576Z" fill="#324D51"/>
</svg>
