<svg width="125" height="125" viewBox="0 0 125 125" fill="none" xmlns="http://www.w3.org/2000/svg">
<path d="M70 4.8837V16.1163C70 18.8144 67.5997 21 64.6364 21H16.3636C13.4003 21 11 18.8144 11 16.1163V4.8837C11 2.18557 13.4003 0 16.3636 0H64.6364C67.5997 0 70 2.18557 70 4.8837Z" fill="#324D51"/>
<path d="M55.7425 100.002L55.7398 100H0V105C0 110.523 4.85412 115 10.8412 115H55.9973L56 114.998L55.7425 100.002Z" fill="#324D51"/>
<path fill-rule="evenodd" clip-rule="evenodd" d="M0 99.9971V52H81V80.0193L55.5307 100L55.528 99.9971H0ZM44.9999 66.9999H57.0001C59.2095 66.9999 61.0004 68.5673 61 70.5002C61 72.4327 59.2091 74.0001 57.0001 74.0001H44.9999V84.5001C44.9999 86.4326 43.2086 88 41 88C38.7914 88 37.0001 86.4329 37.0001 84.5001V74.0001H24.9999C22.7913 74.0001 21 72.433 21 70.5002C21 68.5673 22.7909 66.9999 24.9999 66.9999H37.0001V56.4999C37.0001 54.5674 38.7914 53 41 53C43.2086 53 44.9999 54.5671 44.9999 56.4999V66.9999Z" fill="#324D51"/>
<path fill-rule="evenodd" clip-rule="evenodd" d="M78.8399 45.2087L64.8 29.8571V23H16.2V29.8571L2.16011 45.2087C0.758738 46.7432 0 48.6075 0 50.523V52H81V50.523C81 48.6075 80.2413 46.7432 78.8399 45.2087ZM16.2 21.2353H64.8V21H16.2V21.2353Z" fill="#324D51"/>
<path fill-rule="evenodd" clip-rule="evenodd" d="M113.568 102.395C122.63 97.4301 125.656 86.4746 120.471 77.9502C115.263 69.3912 103.729 66.4591 94.708 71.4004C94.6921 71.4091 94.6774 71.4172 94.6637 71.4247C94.9514 71.2671 94.4869 71.5214 79 80.0054L97.8603 111L113.568 102.395ZM109.355 98.8536C115.739 95.3072 117.871 87.4819 114.218 81.393C110.549 75.2794 102.422 73.185 96.067 76.7146L96.0336 76.7332C96.2408 76.6181 95.9515 76.7786 85 82.861L98.2879 105L109.355 98.8536Z" fill="#324D51"/>
<path fill-rule="evenodd" clip-rule="evenodd" d="M98 111.223L78.828 80L61.5894 89.3586C52.4887 94.3014 49.2433 105.281 54.5723 113.984C59.8665 122.606 71.5917 125.56 80.7614 120.582L98 111.223ZM64.6451 93.1464C58.2606 96.6928 56.1286 104.518 59.7816 110.607C63.451 116.721 71.5776 118.815 77.933 115.285C78.8549 114.773 74.2283 117.343 89 109.139L75.7121 87L64.6451 93.1464Z" fill="#324D51"/>
</svg>
