<svg width="145" height="125" viewBox="0 0 145 125" fill="none" xmlns="http://www.w3.org/2000/svg">
<path fill-rule="evenodd" clip-rule="evenodd" d="M126.007 38.6141C126.007 39.0022 125.933 39.372 125.799 39.7084C125.631 40.1291 125.369 40.4976 125.041 40.7841C124.845 40.9557 124.625 41.098 124.387 41.2045C124.07 41.3468 123.721 41.4255 123.355 41.4255H123.355H116.606H100.201C98.7366 41.4255 97.5491 40.1667 97.5491 38.6141V36.2216H83.2964C80.8325 36.2216 78.8352 38.3389 78.8352 40.9504V120.271C78.8352 122.883 80.8326 125 83.2964 125H140.26C142.724 125 144.721 122.883 144.721 120.271V40.9504C144.721 38.3387 142.724 36.2216 140.26 36.2216H126.007V38.6141ZM102.983 69.6023V90.1989H111.542C114.11 90.1801 116.045 89.6661 117.349 88.657C118.662 87.6385 119.318 86.1202 119.318 84.102C119.318 82.9892 119.024 82.0461 118.435 81.2728C117.846 80.4995 117.001 79.9714 115.9 79.6884C116.876 79.3301 117.614 78.7737 118.116 78.0192C118.618 77.2648 118.869 76.3547 118.869 75.289C118.869 73.4406 118.16 72.0307 116.74 71.0594C115.331 70.088 113.27 69.6023 110.557 69.6023H102.983ZM108.066 86.3795V81.4425H111.628C113.376 81.452 114.25 82.3149 114.25 84.0313C114.25 84.7763 114.003 85.3563 113.511 85.7712C113.019 86.1767 112.314 86.3795 111.397 86.3795H108.066ZM110.716 78.189H108.066V73.4359H110.557C111.696 73.4359 112.521 73.6292 113.033 74.0159C113.545 74.3931 113.801 75.0155 113.801 75.8832C113.801 76.6376 113.564 77.2082 113.091 77.5948C112.618 77.9815 111.826 78.1795 110.716 78.189Z" fill="#324D51"/>
<path fill-rule="evenodd" clip-rule="evenodd" d="M47.172 2.39246C47.172 2.78062 47.0977 3.15041 46.9635 3.48676C46.7868 3.92969 46.506 4.31463 46.1536 4.60713C45.9709 4.75887 45.7688 4.88573 45.5521 4.98291C45.2348 5.12517 44.8859 5.20384 44.5198 5.20385H44.5197H37.7712H21.3661C19.9014 5.20385 18.7139 3.9451 18.7139 2.39246V0H4.46115C1.99725 0 0 2.11727 0 4.72882V84.0496C0 86.6613 1.99743 88.7784 4.46115 88.7784H61.4246C63.8885 88.7784 65.8857 86.6611 65.8857 84.0496V4.72882C65.8857 2.11708 63.8885 0 61.4246 0H47.172V2.39246ZM29.2379 50.1296H36.0605L37.2662 53.9773H42.6136L34.9825 33.3807H30.3017L22.7273 53.9773H28.0464L29.2379 50.1296ZM34.869 46.296H30.4293L32.6421 39.1523L34.869 46.296Z" fill="#324D51"/>
</svg>
