<svg width="125" height="125" viewBox="0 0 125 125" fill="none" xmlns="http://www.w3.org/2000/svg">
<path fill-rule="evenodd" clip-rule="evenodd" d="M82.7803 5.58175C83.183 4.94998 83.4181 4.18837 83.4181 3.36858V0H103.486C106.955 0 109.767 2.98086 109.767 6.65818V118.342C109.767 122.019 106.955 125 103.486 125H23.2813C19.8124 125 17 122.019 17 118.342V6.65818C17 2.98112 19.8121 0 23.2813 0H43.349V3.36858C43.349 5.5547 45.0211 7.32702 47.0834 7.32702H70.1819H79.6837C80.9727 7.32702 82.1092 6.63471 82.7803 5.58175ZM75.7135 45.9976H34.2805C32.7539 45.9976 31.3515 47.0884 31.0612 48.6763C30.6698 50.8119 32.21 52.6889 34.1564 52.6889H75.7135C76.0039 52.6889 76.2396 52.4391 76.2396 52.1312V46.5552C76.2396 46.2475 76.0039 45.9976 75.7135 45.9976ZM80.0755 36.224L93.7525 48.4913C93.9892 48.7043 94.1251 49.0155 94.1251 49.3433C94.1251 49.671 93.9893 49.9822 93.7526 50.1952L80.0756 62.4625C79.8819 62.6354 79.64 62.7257 79.3959 62.7257C79.2454 62.7257 79.095 62.6922 78.9529 62.6219C78.5816 62.439 78.3438 62.0453 78.3438 61.6104V37.076C78.3438 36.641 78.5816 36.2474 78.9529 36.0634C79.3254 35.8806 79.7631 35.9441 80.0755 36.224ZM46.1722 62.8294C45.7998 62.6466 45.3621 62.7101 45.0497 62.9901L31.3727 75.2572C31.136 75.469 31.0002 75.7802 31.0002 76.1081C31.0002 76.436 31.136 76.7472 31.3727 76.9601L45.0497 89.2274C45.2433 89.4003 45.4853 89.4906 45.7294 89.4906C45.8798 89.4906 46.0303 89.4571 46.1724 89.3868C46.5437 89.204 46.7815 88.8102 46.7815 88.3753V63.841C46.7814 63.406 46.5437 63.0123 46.1722 62.8294ZM90.8446 72.7625C92.3701 72.7625 93.7725 73.8532 94.064 75.4412C94.4554 77.5769 92.9151 79.4537 90.9687 79.4538H49.4116C49.1211 79.4538 48.8855 79.204 48.8855 78.8962V73.3201C48.8855 73.0122 49.1212 72.7625 49.4116 72.7625H90.8446Z" fill="#324D51"/>
</svg>
