<svg width="96" height="96" viewBox="0 0 96 96" fill="none" xmlns="http://www.w3.org/2000/svg">
<path d="M75.4966 65.875H80.5V74C80.5 82.0632 73.9399 88.625 65.875 88.625H22C14.4844 88.625 8.27689 82.9277 7.46602 75.625H0.936768C1.77039 86.5174 10.898 95.125 22 95.125H65.875C77.523 95.125 87 85.648 87 74V65.875H92.0034L83.75 54.084L75.4966 65.875Z" fill="#324D51"/>
<path d="M20.5035 30.125H15.5001V22C15.5001 13.9368 22.0602 7.375 30.1251 7.375H74.0001C81.5157 7.375 87.7232 13.0723 88.5341 20.375H95.0633C94.2297 9.48262 85.1021 0.875 74.0001 0.875H30.1251C18.4771 0.875 9.00008 10.352 9.00008 22V30.125H3.9967L12.2501 41.916L20.5035 30.125Z" fill="#324D51"/>
<path fill-rule="evenodd" clip-rule="evenodd" d="M24 15C24 13.3431 25.3431 12 27 12H69C70.6569 12 72 13.3431 72 15V82C72 83.6569 70.6569 85 69 85H27C25.3431 85 24 83.6569 24 82V15ZM45.7674 78.5L38.7376 51.7899C37.9186 52.2806 37.1337 52.8217 36.4057 53.4327L35.0082 66.0005L40.4146 67.8026L38.4175 71.7985L43.78 78.5016H45.7674V78.5ZM30 78.5V67.125C30 63.7076 30.9799 60.5243 32.6504 57.8073L31.4901 68.2511L35.8338 69.699L34.5809 72.2031L39.6184 78.5H30ZM65.75 67.125C65.75 63.7076 64.7701 60.5243 63.0996 57.8073L64.2599 68.2511L59.9163 69.699L61.1691 72.2031L56.1317 78.5H65.75V67.125ZM55.3338 67.801L57.3309 71.7969L51.9684 78.5H49.9827L57.0108 51.7883C57.8298 52.279 58.6147 52.8201 59.3427 53.4311L60.7402 65.9989L55.3338 67.801ZM54.0273 50.3631C52.1049 49.6563 50.0395 49.25 47.875 49.25C45.7105 49.25 43.6452 49.6563 41.7228 50.3631L47.875 73.742L54.0273 50.3631ZM60.875 33C60.875 40.1797 55.0547 46 47.875 46C40.6953 46 34.875 40.1797 34.875 33C34.875 25.8203 40.6953 20 47.875 20C55.0547 20 60.875 25.8203 60.875 33Z" fill="#324D51"/>
</svg>
