<svg width="125" height="125" viewBox="0 0 125 125" fill="none" xmlns="http://www.w3.org/2000/svg">
<g clip-path="url(#clip0)">
<path d="M16.6667 118.75C16.6667 122.202 19.4649 125 22.9167 125C26.3685 125 29.1667 122.202 29.1667 118.75V100H16.6667V118.75Z" fill="#324D51"/>
<path d="M95.8334 118.75C95.8334 122.202 98.6316 125 102.083 125C105.535 125 108.333 122.202 108.333 118.75V100H95.8334V118.75Z" fill="#324D51"/>
<path d="M108.333 85.4167H104.023C102.967 77.0919 95.8915 70.8473 87.5 70.8333H85.4167C84.2661 70.8333 83.3334 71.7661 83.3334 72.9166C83.3334 74.0672 84.2661 75 85.4167 75H87.5C93.593 75.0113 98.792 79.4098 99.8125 85.4167H95.8334C93.5322 85.4167 91.6667 87.2821 91.6667 89.5833V91.6667C91.6667 93.9678 93.5322 95.8333 95.8334 95.8333H108.333C110.635 95.8333 112.5 93.9678 112.5 91.6667V89.5833C112.5 87.2821 110.635 85.4167 108.333 85.4167Z" fill="#324D51"/>
<path d="M100 38.0542C100.256 20.6285 88.4733 5.32304 71.5618 1.11359C54.6502 -3.09586 37.0676 4.90025 29.125 20.4127C21.1824 35.9251 24.9735 54.8649 38.275 66.125C38.8398 66.6288 39.6333 66.7866 40.3479 66.5374C41.0624 66.2882 41.5857 65.6711 41.7147 64.9254C41.8436 64.1797 41.5581 63.4227 40.9687 62.9479C30.8102 54.3558 26.7341 40.5456 30.599 27.8145C34.4638 15.0833 45.5294 5.86976 58.75 4.37498C68.2696 3.29611 77.7932 6.36544 84.8913 12.8C91.9894 19.2346 95.9757 28.4122 95.8333 37.9916C95.5729 55.7937 79.8687 70.8333 61.5375 70.8333H37.5C29.1085 70.8473 22.0333 77.0919 20.9771 85.4167H16.6667C14.3655 85.4167 12.5 87.2821 12.5 89.5833V91.6667C12.5 93.9678 14.3655 95.8333 16.6667 95.8333H29.1667C31.4679 95.8333 33.3333 93.9678 33.3333 91.6667V89.5833C33.3333 87.2821 31.4679 85.4167 29.1667 85.4167H25.1875C26.2081 79.4098 31.407 75.0113 37.5 75H61.5375C82.0958 75 99.7062 58.0812 100 38.0542V38.0542Z" fill="#324D51"/>
<path d="M45.5 49.7208L41.9771 51.7541C43.6777 54.1995 45.8005 56.3223 48.2459 58.0229L50.2792 54.5C50.8584 53.512 52.1264 53.1768 53.1181 53.7494C54.1099 54.322 54.4535 55.5878 53.8875 56.5833L51.8604 60.0979C54.5515 61.3711 57.4498 62.1495 60.4167 62.3958V58.3333C60.4167 57.1827 61.3494 56.25 62.5 56.25C63.6506 56.25 64.5834 57.1827 64.5834 58.3333V62.3958C67.5498 62.1514 70.4481 61.3752 73.1396 60.1041L71.1125 56.5895C70.7344 55.9446 70.7309 55.1465 71.1032 54.4983C71.4756 53.85 72.1668 53.4509 72.9144 53.4526C73.662 53.4542 74.3513 53.8563 74.7209 54.5062L76.7542 58.0291C79.1996 56.3285 81.3223 54.2058 83.0229 51.7604L79.5 49.727C78.5121 49.1479 78.1768 47.8799 78.7495 46.8881C79.3221 45.8963 80.5878 45.5527 81.5834 46.1187L85.0979 48.1479C86.3716 45.454 87.15 42.5529 87.3959 39.5833H83.3334C82.1828 39.5833 81.25 38.6506 81.25 37.5C81.25 36.3494 82.1828 35.4166 83.3334 35.4166H87.3959C87.1515 32.4495 86.3752 29.5505 85.1042 26.8583L81.5896 28.8875C80.9447 29.2656 80.1466 29.2691 79.4983 28.8967C78.8501 28.5244 78.451 27.8332 78.4526 27.0856C78.4543 26.338 78.8564 25.6486 79.5063 25.2791L83.0292 23.2437C81.328 20.7994 79.2053 18.6774 76.7604 16.977L74.7209 20.5C74.1417 21.4879 72.8737 21.8231 71.8819 21.2505C70.8901 20.6779 70.5465 19.4122 71.1125 18.4166L73.1396 14.902C70.4485 13.6288 67.5502 12.8505 64.5834 12.6041V16.6666C64.5834 17.8172 63.6506 18.75 62.5 18.75C61.3494 18.75 60.4167 17.8172 60.4167 16.6666V12.6041C57.4502 12.8485 54.5519 13.6248 51.8604 14.8958L53.8875 18.4104C54.2656 19.0553 54.2692 19.8534 53.8968 20.5017C53.5244 21.1499 52.8333 21.549 52.0857 21.5473C51.3381 21.5457 50.6487 21.1436 50.2792 20.4937L48.2459 16.9708C45.801 18.6712 43.6783 20.7932 41.9771 23.2375L45.5 25.2729C46.1499 25.6424 46.552 26.3318 46.5536 27.0794C46.5553 27.827 46.1562 28.5181 45.508 28.8905C44.8597 29.2628 44.0616 29.2593 43.4167 28.8812L39.9021 26.852C38.6282 29.5458 37.8498 32.447 37.6042 35.4166H41.6667C42.8173 35.4166 43.75 36.3494 43.75 37.5C43.75 38.6506 42.8173 39.5833 41.6667 39.5833H37.6042C37.8488 42.5504 38.6251 45.4493 39.8959 48.1416L43.4104 46.1125C44.0554 45.7344 44.8535 45.7308 45.5017 46.1032C46.15 46.4755 46.549 47.1667 46.5474 47.9143C46.5458 48.6619 46.1437 49.3513 45.4938 49.7208H45.5ZM60.4167 25C60.4167 23.8494 61.3494 22.9166 62.5 22.9166C63.6506 22.9166 64.5834 23.8494 64.5834 25V36.6375L72.3063 44.3604C72.8479 44.8834 73.065 45.658 72.8744 46.3864C72.6837 47.1148 72.1149 47.6837 71.3865 47.8743C70.6581 48.065 69.8835 47.8478 69.3604 47.3062L61.0271 38.9729C60.6364 38.5823 60.4168 38.0525 60.4167 37.5V25Z" fill="#324D51"/>
</g>
<defs>
<clipPath id="clip0">
<rect width="125" height="125" fill="white"/>
</clipPath>
</defs>
</svg>
