<svg width="488" height="488" viewBox="0 0 488 488" fill="none" xmlns="http://www.w3.org/2000/svg">
<g clip-path="url(#clip0)">
<path fill-rule="evenodd" clip-rule="evenodd" d="M243.811 487.622C378.464 487.622 487.622 378.464 487.622 243.811C487.622 109.158 378.464 0 243.811 0C109.158 0 0 109.158 0 243.811C0 378.464 109.158 487.622 243.811 487.622ZM243.819 377.401C275.686 377.401 305.645 364.992 328.178 342.46C350.709 319.927 363.12 289.964 363.12 258.101V258.1C363.12 226.234 350.711 196.275 328.178 173.742C312.155 157.719 292.048 146.639 270.031 141.701C258.082 139.019 245.86 138.201 233.782 139.217L225.587 110.223L192.03 144.711L158.473 179.199L205.119 191.015L251.765 202.831L241.886 167.884C266.1 167.31 289.789 176.535 307.587 194.333C342.748 229.494 342.748 286.706 307.587 321.866C272.426 357.027 215.215 357.027 180.055 321.866C153.585 295.399 146.19 256.146 161.208 221.87L134.534 210.182C125.005 231.93 122.193 255.825 126.405 279.278C130.719 303.298 142.15 325.145 159.463 342.459C181.995 364.991 211.954 377.401 243.819 377.401ZM238 263.417H250C254.774 263.417 259.352 265.339 262.728 268.762C266.104 272.185 268 276.826 268 281.667C268 286.507 266.104 291.149 262.728 294.571C259.352 297.994 254.774 299.917 250 299.917V306H238V299.917C233.226 299.917 228.648 297.994 225.272 294.571C221.896 291.149 220 286.507 220 281.667H232C232 283.28 232.632 284.827 233.757 285.968C234.883 287.109 236.409 287.75 238 287.75H250C251.591 287.75 253.117 287.109 254.243 285.968C255.368 284.827 256 283.28 256 281.667C256 280.053 255.368 278.506 254.243 277.365C253.117 276.224 251.591 275.583 250 275.583H238C233.226 275.583 228.648 273.661 225.272 270.238C221.896 266.815 220 262.174 220 257.333C220 252.493 221.896 247.851 225.272 244.429C228.648 241.006 233.226 239.083 238 239.083V233H250V239.083C254.774 239.083 259.352 241.006 262.728 244.429C266.104 247.851 268 252.493 268 257.333H256C256 255.72 255.368 254.173 254.243 253.032C253.117 251.891 251.591 251.25 250 251.25H238C236.409 251.25 234.883 251.891 233.757 253.032C232.632 254.173 232 255.72 232 257.333C232 258.947 232.632 260.494 233.757 261.635C234.883 262.776 236.409 263.417 238 263.417Z" fill="#324D51"/>
</g>
<defs>
<clipPath id="clip0">
<rect width="487.622" height="487.622" fill="white"/>
</clipPath>
</defs>
</svg>
